solid OBJECT
  facet normal 0 -1 -0
    outer loop
      vertex 4.820000171661377 0 7.761167049407959
      vertex 24.819999694824219 0 7.761167049407959
      vertex 24.819999694824219 0 10.261166572570801
    endloop
  endfacet
  facet normal 0 -1 -0
    outer loop
      vertex 4.820000171661377 0 7.761167049407959
      vertex 24.819999694824219 0 10.261166572570801
      vertex 4.820000171661377 0 10.261166572570801
    endloop
  endfacet
  facet normal 1 -0 0
    outer loop
      vertex 24.819999694824219 0 7.761167049407959
      vertex 24.819999694824219 120 7.761167049407959
      vertex 24.819999694824219 120 10.261166572570801
    endloop
  endfacet
  facet normal 1 -0 0
    outer loop
      vertex 24.819999694824219 0 7.761167049407959
      vertex 24.819999694824219 120 10.261166572570801
      vertex 24.819999694824219 0 10.261166572570801
    endloop
  endfacet
  facet normal 0 1 0
    outer loop
      vertex 24.819999694824219 120 7.761167049407959
      vertex 4.820000171661377 120 7.761167049407959
      vertex 4.820000171661377 120 10.261166572570801
    endloop
  endfacet
  facet normal 0 1 0
    outer loop
      vertex 24.819999694824219 120 7.761167049407959
      vertex 4.820000171661377 120 10.261166572570801
      vertex 24.819999694824219 120 10.261166572570801
    endloop
  endfacet
  facet normal -1 -0 -0
    outer loop
      vertex 4.820000171661377 120 7.761167049407959
      vertex 4.820000171661377 0 7.761167049407959
      vertex 4.820000171661377 0 10.261166572570801
    endloop
  endfacet
  facet normal -1 -0 -0
    outer loop
      vertex 4.820000171661377 120 7.761167049407959
      vertex 4.820000171661377 0 10.261166572570801
      vertex 4.820000171661377 120 10.261166572570801
    endloop
  endfacet
  facet normal 0 0 -1
    outer loop
      vertex 24.819999694824219 0 7.761167049407959
      vertex 4.820000171661377 0 7.761167049407959
      vertex 4.820000171661377 120 7.761167049407959
    endloop
  endfacet
  facet normal -0 -0 -1
    outer loop
      vertex 4.820000171661377 120 7.761167049407959
      vertex 24.819999694824219 120 7.761167049407959
      vertex 24.819999694824219 0 7.761167049407959
    endloop
  endfacet
  facet normal -0 -0 1
    outer loop
      vertex 24.819999694824219 0 10.261166572570801
      vertex 4.820000171661377 120 10.261166572570801
      vertex 4.820000171661377 0 10.261166572570801
    endloop
  endfacet
  facet normal 0 0 1
    outer loop
      vertex 4.820000171661377 120 10.261166572570801
      vertex 24.819999694824219 0 10.261166572570801
      vertex 24.819999694824219 120 10.261166572570801
    endloop
  endfacet
endsolid OBJECT
