solid OBJECT
  facet normal -1 0 -0
    outer loop
      vertex -115.00001698732376 -115.7819846868515 -6.0000009834766388
      vertex -115.00001698732376 -115.7819846868515 6.0000009834766388
      vertex -115.00001698732376 114.21803438663483 6.0000009834766388
    endloop
  endfacet
  facet normal -1 0 0
    outer loop
      vertex -115.00001698732376 -115.7819846868515 -6.0000009834766388
      vertex -115.00001698732376 114.21803438663483 6.0000009834766388
      vertex -115.00001698732376 114.21803438663483 -6.0000009834766388
    endloop
  endfacet
  facet normal -0 1 0
    outer loop
      vertex -115.00001698732376 114.21803438663483 -6.0000009834766388
      vertex -115.00001698732376 114.21803438663483 6.0000009834766388
      vertex 115.00001698732376 114.21803438663483 6.0000009834766388
    endloop
  endfacet
  facet normal 0 1 -0
    outer loop
      vertex -115.00001698732376 114.21803438663483 -6.0000009834766388
      vertex 115.00001698732376 114.21803438663483 6.0000009834766388
      vertex 115.00001698732376 114.21803438663483 -6.0000009834766388
    endloop
  endfacet
  facet normal 1 0 0
    outer loop
      vertex 115.00001698732376 114.21803438663483 -6.0000009834766388
      vertex 115.00001698732376 114.21803438663483 6.0000009834766388
      vertex 115.00001698732376 -115.7819846868515 6.0000009834766388
    endloop
  endfacet
  facet normal 1 0 -0
    outer loop
      vertex 115.00001698732376 114.21803438663483 -6.0000009834766388
      vertex 115.00001698732376 -115.7819846868515 6.0000009834766388
      vertex 115.00001698732376 -115.7819846868515 -6.0000009834766388
    endloop
  endfacet
  facet normal -0 -1 -0
    outer loop
      vertex 115.00001698732376 -115.7819846868515 -6.0000009834766388
      vertex 115.00001698732376 -115.7819846868515 6.0000009834766388
      vertex -115.00001698732376 -115.7819846868515 6.0000009834766388
    endloop
  endfacet
  facet normal 0 -1 0
    outer loop
      vertex 115.00001698732376 -115.7819846868515 -6.0000009834766388
      vertex -115.00001698732376 -115.7819846868515 6.0000009834766388
      vertex -115.00001698732376 -115.7819846868515 -6.0000009834766388
    endloop
  endfacet
  facet normal 0 0 -1
    outer loop
      vertex -115.00001698732376 114.21803438663483 -6.0000009834766388
      vertex 115.00001698732376 114.21803438663483 -6.0000009834766388
      vertex 115.00001698732376 -115.7819846868515 -6.0000009834766388
    endloop
  endfacet
  facet normal 0 0 -1
    outer loop
      vertex -115.00001698732376 114.21803438663483 -6.0000009834766388
      vertex 115.00001698732376 -115.7819846868515 -6.0000009834766388
      vertex -115.00001698732376 -115.7819846868515 -6.0000009834766388
    endloop
  endfacet
  facet normal -0 -0 1
    outer loop
      vertex -110.00001430511475 -110.78210866451263 6.0000009834766388
      vertex -115.00001698732376 -115.7819846868515 6.0000009834766388
      vertex 115.00001698732376 -115.7819846868515 6.0000009834766388
    endloop
  endfacet
  facet normal 0 0 1
    outer loop
      vertex -110.00001430511475 -110.78210866451263 6.0000009834766388
      vertex 115.00001698732376 -115.7819846868515 6.0000009834766388
      vertex 110.00001430511475 -110.78210866451263 6.0000009834766388
    endloop
  endfacet
  facet normal 0 0 1
    outer loop
      vertex 110.00001430511475 109.21791994571686 6.0000009834766388
      vertex 110.00001430511475 -110.78210866451263 6.0000009834766388
      vertex 115.00001698732376 -115.7819846868515 6.0000009834766388
    endloop
  endfacet
  facet normal 0 0 1
    outer loop
      vertex -115.00001698732376 114.21803438663483 6.0000009834766388
      vertex -115.00001698732376 -115.7819846868515 6.0000009834766388
      vertex -110.00001430511475 -110.78210866451263 6.0000009834766388
    endloop
  endfacet
  facet normal 0 0 1
    outer loop
      vertex -115.00001698732376 114.21803438663483 6.0000009834766388
      vertex -110.00001430511475 -110.78210866451263 6.0000009834766388
      vertex -110.00001430511475 109.21791994571686 6.0000009834766388
    endloop
  endfacet
  facet normal 0 -0 1
    outer loop
      vertex 110.00001430511475 109.21791994571686 6.0000009834766388
      vertex 115.00001698732376 -115.7819846868515 6.0000009834766388
      vertex 115.00001698732376 114.21803438663483 6.0000009834766388
    endloop
  endfacet
  facet normal 0 0 1
    outer loop
      vertex -115.00001698732376 114.21803438663483 6.0000009834766388
      vertex -110.00001430511475 109.21791994571686 6.0000009834766388
      vertex 110.00001430511475 109.21791994571686 6.0000009834766388
    endloop
  endfacet
  facet normal 0 -0 1
    outer loop
      vertex 115.00001698732376 114.21803438663483 6.0000009834766388
      vertex -115.00001698732376 114.21803438663483 6.0000009834766388
      vertex 110.00001430511475 109.21791994571686 6.0000009834766388
    endloop
  endfacet
  facet normal 1 -0 -0
    outer loop
      vertex -110.00001430511475 -110.78210866451263 6.0000009834766388
      vertex -110.00001430511475 -110.78210866451263 -0.9799998952075839
      vertex -110.00001430511475 109.21791994571686 -0.9799998952075839
    endloop
  endfacet
  facet normal 1 -0 -0
    outer loop
      vertex -110.00001430511475 -110.78210866451263 6.0000009834766388
      vertex -110.00001430511475 109.21791994571686 -0.9799998952075839
      vertex -110.00001430511475 109.21791994571686 6.0000009834766388
    endloop
  endfacet
  facet normal 0 -1 0
    outer loop
      vertex -110.00001430511475 109.21791994571686 6.0000009834766388
      vertex -110.00001430511475 109.21791994571686 -0.9799998952075839
      vertex 110.00001430511475 109.21791994571686 -0.9799998952075839
    endloop
  endfacet
  facet normal 0 -1 0
    outer loop
      vertex -110.00001430511475 109.21791994571686 6.0000009834766388
      vertex 110.00001430511475 109.21791994571686 -0.9799998952075839
      vertex 110.00001430511475 109.21791994571686 6.0000009834766388
    endloop
  endfacet
  facet normal -1 -0 -0
    outer loop
      vertex 110.00001430511475 109.21791994571686 -0.9799998952075839
      vertex 110.00001430511475 -110.78210866451263 -0.9799998952075839
      vertex 110.00001430511475 -110.78210866451263 6.0000009834766388
    endloop
  endfacet
  facet normal -1 -0 -0
    outer loop
      vertex 110.00001430511475 109.21791994571686 -0.9799998952075839
      vertex 110.00001430511475 -110.78210866451263 6.0000009834766388
      vertex 110.00001430511475 109.21791994571686 6.0000009834766388
    endloop
  endfacet
  facet normal 0 1 0
    outer loop
      vertex 110.00001430511475 -110.78210866451263 -0.9799998952075839
      vertex -110.00001430511475 -110.78210866451263 -0.9799998952075839
      vertex -110.00001430511475 -110.78210866451263 6.0000009834766388
    endloop
  endfacet
  facet normal 0 1 0
    outer loop
      vertex 110.00001430511475 -110.78210866451263 -0.9799998952075839
      vertex -110.00001430511475 -110.78210866451263 6.0000009834766388
      vertex 110.00001430511475 -110.78210866451263 6.0000009834766388
    endloop
  endfacet
  facet normal -0 -0 1
    outer loop
      vertex -110.00001430511475 109.21791994571686 -0.9799998952075839
      vertex -110.00001430511475 -110.78210866451263 -0.9799998952075839
      vertex 110.00001430511475 -110.78210866451263 -0.9799998952075839
    endloop
  endfacet
  facet normal 0 0 1
    outer loop
      vertex -110.00001430511475 109.21791994571686 -0.9799998952075839
      vertex 110.00001430511475 -110.78210866451263 -0.9799998952075839
      vertex 110.00001430511475 109.21791994571686 -0.9799998952075839
    endloop
  endfacet
endsolid OBJECT
