solid OBJECT
  facet normal 0 -1 0
    outer loop
      vertex 73.124183654785156 15.10700798034668 6.5
      vertex 73.124183654785156 15.10700798034668 5
      vertex 85 15.10700798034668 5
    endloop
  endfacet
  facet normal 0 -1 -0
    outer loop
      vertex 73.124183654785156 15.10700798034668 6.5
      vertex 85 15.10700798034668 5
      vertex 85 15.10700798034668 6.5
    endloop
  endfacet
  facet normal 1 -0 -0
    outer loop
      vertex 85 15.10700798034668 6.5
      vertex 85 15.10700798034668 5
      vertex 85 27 5
    endloop
  endfacet
  facet normal 1 0 0
    outer loop
      vertex 85 15.10700798034668 6.5
      vertex 85 27 5
      vertex 85 27 6.5
    endloop
  endfacet
  facet normal 0 1 -0
    outer loop
      vertex 85 27 6.5
      vertex 85 27 5
      vertex 73.124183654785156 27 5
    endloop
  endfacet
  facet normal 0 1 0
    outer loop
      vertex 85 27 6.5
      vertex 73.124183654785156 27 5
      vertex 73.124183654785156 27 6.5
    endloop
  endfacet
  facet normal -1 -0 0
    outer loop
      vertex 73.124183654785156 27 6.5
      vertex 73.124183654785156 27 5
      vertex 73.124183654785156 15.10700798034668 5
    endloop
  endfacet
  facet normal -1 0 -0
    outer loop
      vertex 73.124183654785156 27 6.5
      vertex 73.124183654785156 15.10700798034668 5
      vertex 73.124183654785156 15.10700798034668 6.5
    endloop
  endfacet
  facet normal 0 0 1
    outer loop
      vertex 73.124183654785156 27 6.5
      vertex 73.124183654785156 15.10700798034668 6.5
      vertex 85 15.10700798034668 6.5
    endloop
  endfacet
  facet normal 0 0 1
    outer loop
      vertex 73.124183654785156 27 6.5
      vertex 85 15.10700798034668 6.5
      vertex 85 27 6.5
    endloop
  endfacet
  facet normal 0 -1 0
    outer loop
      vertex 15.12418270111084 15.10700798034668 6.5
      vertex 15.12418270111084 15.10700798034668 5
      vertex 27 15.10700798034668 5
    endloop
  endfacet
  facet normal 0 -1 0
    outer loop
      vertex 15.12418270111084 15.10700798034668 6.5
      vertex 27 15.10700798034668 5
      vertex 27 15.10700798034668 6.5
    endloop
  endfacet
  facet normal 1 -0 -0
    outer loop
      vertex 27 15.10700798034668 6.5
      vertex 27 15.10700798034668 5
      vertex 27 27 5
    endloop
  endfacet
  facet normal 1 0 0
    outer loop
      vertex 27 15.10700798034668 6.5
      vertex 27 27 5
      vertex 27 27 6.5
    endloop
  endfacet
  facet normal 0 1 -0
    outer loop
      vertex 27 27 6.5
      vertex 27 27 5
      vertex 15.12418270111084 27 5
    endloop
  endfacet
  facet normal 0 1 -0
    outer loop
      vertex 27 27 6.5
      vertex 15.12418270111084 27 5
      vertex 15.12418270111084 27 6.5
    endloop
  endfacet
  facet normal -1 -0 0
    outer loop
      vertex 15.12418270111084 27 6.5
      vertex 15.12418270111084 27 5
      vertex 15.12418270111084 15.10700798034668 5
    endloop
  endfacet
  facet normal -1 0 -0
    outer loop
      vertex 15.12418270111084 27 6.5
      vertex 15.12418270111084 15.10700798034668 5
      vertex 15.12418270111084 15.10700798034668 6.5
    endloop
  endfacet
  facet normal 0 0 1
    outer loop
      vertex 15.12418270111084 27 6.5
      vertex 15.12418270111084 15.10700798034668 6.5
      vertex 27 15.10700798034668 6.5
    endloop
  endfacet
  facet normal 0 0 1
    outer loop
      vertex 15.12418270111084 27 6.5
      vertex 27 15.10700798034668 6.5
      vertex 27 27 6.5
    endloop
  endfacet
  facet normal 0 -1 0
    outer loop
      vertex 73.124183654785156 73.107009887695312 6.5
      vertex 73.124183654785156 73.107009887695312 5
      vertex 85 73.107009887695312 5
    endloop
  endfacet
  facet normal 0 -1 -0
    outer loop
      vertex 73.124183654785156 73.107009887695312 6.5
      vertex 85 73.107009887695312 5
      vertex 85 73.107009887695312 6.5
    endloop
  endfacet
  facet normal 1 -0 -0
    outer loop
      vertex 85 73.107009887695312 6.5
      vertex 85 73.107009887695312 5
      vertex 85 85 5
    endloop
  endfacet
  facet normal 1 0 0
    outer loop
      vertex 85 73.107009887695312 6.5
      vertex 85 85 5
      vertex 85 85 6.5
    endloop
  endfacet
  facet normal 0 1 -0
    outer loop
      vertex 85 85 6.5
      vertex 85 85 5
      vertex 73.124183654785156 85 5
    endloop
  endfacet
  facet normal 0 1 0
    outer loop
      vertex 85 85 6.5
      vertex 73.124183654785156 85 5
      vertex 73.124183654785156 85 6.5
    endloop
  endfacet
  facet normal -1 -0 0
    outer loop
      vertex 73.124183654785156 85 6.5
      vertex 73.124183654785156 85 5
      vertex 73.124183654785156 73.107009887695312 5
    endloop
  endfacet
  facet normal -1 0 -0
    outer loop
      vertex 73.124183654785156 85 6.5
      vertex 73.124183654785156 73.107009887695312 5
      vertex 73.124183654785156 73.107009887695312 6.5
    endloop
  endfacet
  facet normal 0 0 1
    outer loop
      vertex 73.124183654785156 85 6.5
      vertex 73.124183654785156 73.107009887695312 6.5
      vertex 85 73.107009887695312 6.5
    endloop
  endfacet
  facet normal 0 0 1
    outer loop
      vertex 73.124183654785156 85 6.5
      vertex 85 73.107009887695312 6.5
      vertex 85 85 6.5
    endloop
  endfacet
  facet normal 0 -1 0
    outer loop
      vertex 15.12418270111084 73.107009887695312 6.5
      vertex 15.12418270111084 73.107009887695312 5
      vertex 27 73.107009887695312 5
    endloop
  endfacet
  facet normal 0 -1 0
    outer loop
      vertex 15.12418270111084 73.107009887695312 6.5
      vertex 27 73.107009887695312 5
      vertex 27 73.107009887695312 6.5
    endloop
  endfacet
  facet normal 1 -0 -0
    outer loop
      vertex 27 73.107009887695312 6.5
      vertex 27 73.107009887695312 5
      vertex 27 85 5
    endloop
  endfacet
  facet normal 1 0 0
    outer loop
      vertex 27 73.107009887695312 6.5
      vertex 27 85 5
      vertex 27 85 6.5
    endloop
  endfacet
  facet normal 0 1 -0
    outer loop
      vertex 27 85 6.5
      vertex 27 85 5
      vertex 15.12418270111084 85 5
    endloop
  endfacet
  facet normal 0 1 -0
    outer loop
      vertex 27 85 6.5
      vertex 15.12418270111084 85 5
      vertex 15.12418270111084 85 6.5
    endloop
  endfacet
  facet normal -1 -0 0
    outer loop
      vertex 15.12418270111084 85 6.5
      vertex 15.12418270111084 85 5
      vertex 15.12418270111084 73.107009887695312 5
    endloop
  endfacet
  facet normal -1 0 -0
    outer loop
      vertex 15.12418270111084 85 6.5
      vertex 15.12418270111084 73.107009887695312 5
      vertex 15.12418270111084 73.107009887695312 6.5
    endloop
  endfacet
  facet normal 0 0 1
    outer loop
      vertex 15.12418270111084 85 6.5
      vertex 15.12418270111084 73.107009887695312 6.5
      vertex 27 73.107009887695312 6.5
    endloop
  endfacet
  facet normal 0 0 1
    outer loop
      vertex 15.12418270111084 85 6.5
      vertex 27 73.107009887695312 6.5
      vertex 27 85 6.5
    endloop
  endfacet
  facet normal 0 -1 0
    outer loop
      vertex 0.12418242543935776 0.10700788348913193 10
      vertex 0.12418242543935776 0.10700788348913193 0
      vertex 100.12418365478516 0.10700788348913193 0
    endloop
  endfacet
  facet normal 0 -1 -0
    outer loop
      vertex 0.12418242543935776 0.10700788348913193 10
      vertex 100.12418365478516 0.10700788348913193 0
      vertex 100.12418365478516 0.10700788348913193 10
    endloop
  endfacet
  facet normal 1 -0 -0
    outer loop
      vertex 100.12418365478516 0.10700788348913193 10
      vertex 100.12418365478516 0.10700788348913193 0
      vertex 100.12418365478516 100.10700988769531 0
    endloop
  endfacet
  facet normal 1 0 0
    outer loop
      vertex 100.12418365478516 0.10700788348913193 10
      vertex 100.12418365478516 100.10700988769531 0
      vertex 100.12418365478516 100.10700988769531 10
    endloop
  endfacet
  facet normal 0 1 -0
    outer loop
      vertex 100.12418365478516 100.10700988769531 10
      vertex 100.12418365478516 100.10700988769531 0
      vertex 0.12418242543935776 100.10700988769531 0
    endloop
  endfacet
  facet normal 0 1 0
    outer loop
      vertex 100.12418365478516 100.10700988769531 10
      vertex 0.12418242543935776 100.10700988769531 0
      vertex 0.12418242543935776 100.10700988769531 10
    endloop
  endfacet
  facet normal -1 -0 0
    outer loop
      vertex 0.12418242543935776 100.10700988769531 10
      vertex 0.12418242543935776 100.10700988769531 0
      vertex 0.12418242543935776 0.10700788348913193 0
    endloop
  endfacet
  facet normal -1 0 -0
    outer loop
      vertex 0.12418242543935776 100.10700988769531 10
      vertex 0.12418242543935776 0.10700788348913193 0
      vertex 0.12418242543935776 0.10700788348913193 10
    endloop
  endfacet
  facet normal -0 -0 -1
    outer loop
      vertex 0.12418242543935776 100.10700988769531 0
      vertex 100.12418365478516 100.10700988769531 0
      vertex 100.12418365478516 0.10700788348913193 0
    endloop
  endfacet
  facet normal 0 0 -1
    outer loop
      vertex 0.12418242543935776 100.10700988769531 0
      vertex 100.12418365478516 0.10700788348913193 0
      vertex 0.12418242543935776 0.10700788348913193 0
    endloop
  endfacet
  facet normal -0 0 1
    outer loop
      vertex 5.1241822242736816 5.1070079803466797 10
      vertex 5.1241822242736816 95.107009887695312 10
      vertex 0.12418242543935776 100.10700988769531 10
    endloop
  endfacet
  facet normal -0 0 1
    outer loop
      vertex 5.1241822242736816 5.1070079803466797 10
      vertex 0.12418242543935776 100.10700988769531 10
      vertex 0.12418242543935776 0.10700788348913193 10
    endloop
  endfacet
  facet normal -0 0 1
    outer loop
      vertex 0.12418242543935776 0.10700788348913193 10
      vertex 100.12418365478516 0.10700788348913193 10
      vertex 95.124183654785156 5.1070079803466797 10
    endloop
  endfacet
  facet normal 0 -0 1
    outer loop
      vertex 0.12418242543935776 0.10700788348913193 10
      vertex 95.124183654785156 5.1070079803466797 10
      vertex 5.1241822242736816 5.1070079803466797 10
    endloop
  endfacet
  facet normal 0 -0 1
    outer loop
      vertex 5.1241822242736816 95.107009887695312 10
      vertex 95.124183654785156 95.107009887695312 10
      vertex 100.12418365478516 100.10700988769531 10
    endloop
  endfacet
  facet normal 0 0 1
    outer loop
      vertex 5.1241822242736816 95.107009887695312 10
      vertex 100.12418365478516 100.10700988769531 10
      vertex 0.12418242543935776 100.10700988769531 10
    endloop
  endfacet
  facet normal -0 -0 1
    outer loop
      vertex 100.12418365478516 0.10700788348913193 10
      vertex 100.12418365478516 100.10700988769531 10
      vertex 95.124183654785156 95.107009887695312 10
    endloop
  endfacet
  facet normal -0 -0 1
    outer loop
      vertex 100.12418365478516 0.10700788348913193 10
      vertex 95.124183654785156 95.107009887695312 10
      vertex 95.124183654785156 5.1070079803466797 10
    endloop
  endfacet
  facet normal -0 1 -0
    outer loop
      vertex 5.1241822242736816 5.1070079803466797 10
      vertex 95.124183654785156 5.1070079803466797 10
      vertex 95.124183654785156 5.1070079803466797 5
    endloop
  endfacet
  facet normal -0 1 -0
    outer loop
      vertex 5.1241822242736816 5.1070079803466797 10
      vertex 95.124183654785156 5.1070079803466797 5
      vertex 5.1241822242736816 5.1070079803466797 5
    endloop
  endfacet
  facet normal -1 0 0
    outer loop
      vertex 95.124183654785156 5.1070079803466797 10
      vertex 95.124183654785156 95.107009887695312 10
      vertex 95.124183654785156 95.107009887695312 5
    endloop
  endfacet
  facet normal -1 0 0
    outer loop
      vertex 95.124183654785156 5.1070079803466797 10
      vertex 95.124183654785156 95.107009887695312 5
      vertex 95.124183654785156 5.1070079803466797 5
    endloop
  endfacet
  facet normal -0 -1 0
    outer loop
      vertex 95.124183654785156 95.107009887695312 10
      vertex 5.1241822242736816 95.107009887695312 10
      vertex 5.1241822242736816 95.107009887695312 5
    endloop
  endfacet
  facet normal -0 -1 0
    outer loop
      vertex 95.124183654785156 95.107009887695312 10
      vertex 5.1241822242736816 95.107009887695312 5
      vertex 95.124183654785156 95.107009887695312 5
    endloop
  endfacet
  facet normal 1 0 -0
    outer loop
      vertex 5.1241822242736816 95.107009887695312 10
      vertex 5.1241822242736816 5.1070079803466797 10
      vertex 5.1241822242736816 5.1070079803466797 5
    endloop
  endfacet
  facet normal 1 0 -0
    outer loop
      vertex 5.1241822242736816 95.107009887695312 10
      vertex 5.1241822242736816 5.1070079803466797 5
      vertex 5.1241822242736816 95.107009887695312 5
    endloop
  endfacet
  facet normal -0 0 1
    outer loop
      vertex 15.12418270111084 27 5
      vertex 15.12418270111084 73.107009887695312 5
      vertex 5.1241822242736816 95.107009887695312 5
    endloop
  endfacet
  facet normal -0 0 1
    outer loop
      vertex 15.12418270111084 27 5
      vertex 5.1241822242736816 95.107009887695312 5
      vertex 5.1241822242736816 5.1070079803466797 5
    endloop
  endfacet
  facet normal -0 0 1
    outer loop
      vertex 15.12418270111084 15.10700798034668 5
      vertex 15.12418270111084 27 5
      vertex 5.1241822242736816 5.1070079803466797 5
    endloop
  endfacet
  facet normal -0 0 1
    outer loop
      vertex 5.1241822242736816 5.1070079803466797 5
      vertex 27 15.10700798034668 5
      vertex 15.12418270111084 15.10700798034668 5
    endloop
  endfacet
  facet normal -0 -0 1
    outer loop
      vertex 27 73.107009887695312 5
      vertex 27 27 5
      vertex 73.124183654785156 27 5
    endloop
  endfacet
  facet normal 0 0 1
    outer loop
      vertex 27 73.107009887695312 5
      vertex 73.124183654785156 27 5
      vertex 73.124183654785156 73.107009887695312 5
    endloop
  endfacet
  facet normal 0 -0 1
    outer loop
      vertex 27 15.10700798034668 5
      vertex 5.1241822242736816 5.1070079803466797 5
      vertex 73.124183654785156 15.10700798034668 5
    endloop
  endfacet
  facet normal -0 -0 1
    outer loop
      vertex 27 27 5
      vertex 27 73.107009887695312 5
      vertex 15.12418270111084 73.107009887695312 5
    endloop
  endfacet
  facet normal -0 -0 1
    outer loop
      vertex 27 27 5
      vertex 15.12418270111084 73.107009887695312 5
      vertex 15.12418270111084 27 5
    endloop
  endfacet
  facet normal -0 0 1
    outer loop
      vertex 15.12418270111084 85 5
      vertex 5.1241822242736816 95.107009887695312 5
      vertex 15.12418270111084 73.107009887695312 5
    endloop
  endfacet
  facet normal -0 -0 1
    outer loop
      vertex 27 85 5
      vertex 27 73.107009887695312 5
      vertex 73.124183654785156 73.107009887695312 5
    endloop
  endfacet
  facet normal 0 0 1
    outer loop
      vertex 27 85 5
      vertex 73.124183654785156 73.107009887695312 5
      vertex 73.124183654785156 85 5
    endloop
  endfacet
  facet normal 0 0 1
    outer loop
      vertex 5.1241822242736816 95.107009887695312 5
      vertex 15.12418270111084 85 5
      vertex 27 85 5
    endloop
  endfacet
  facet normal 0 0 1
    outer loop
      vertex 27 85 5
      vertex 73.124183654785156 85 5
      vertex 95.124183654785156 95.107009887695312 5
    endloop
  endfacet
  facet normal 0 0 1
    outer loop
      vertex 27 85 5
      vertex 95.124183654785156 95.107009887695312 5
      vertex 5.1241822242736816 95.107009887695312 5
    endloop
  endfacet
  facet normal -0 0 1
    outer loop
      vertex 27 15.10700798034668 5
      vertex 73.124183654785156 27 5
      vertex 27 27 5
    endloop
  endfacet
  facet normal -0 0 1
    outer loop
      vertex 27 15.10700798034668 5
      vertex 73.124183654785156 15.10700798034668 5
      vertex 73.124183654785156 27 5
    endloop
  endfacet
  facet normal 0 0 1
    outer loop
      vertex 85 27 5
      vertex 85 15.10700798034668 5
      vertex 95.124183654785156 5.1070079803466797 5
    endloop
  endfacet
  facet normal -0 -0 1
    outer loop
      vertex 73.124183654785156 15.10700798034668 5
      vertex 95.124183654785156 5.1070079803466797 5
      vertex 85 15.10700798034668 5
    endloop
  endfacet
  facet normal 0 0 1
    outer loop
      vertex 85 73.107009887695312 5
      vertex 85 27 5
      vertex 95.124183654785156 5.1070079803466797 5
    endloop
  endfacet
  facet normal 0 -0 1
    outer loop
      vertex 85 73.107009887695312 5
      vertex 95.124183654785156 5.1070079803466797 5
      vertex 95.124183654785156 95.107009887695312 5
    endloop
  endfacet
  facet normal -0 -0 1
    outer loop
      vertex 95.124183654785156 5.1070079803466797 5
      vertex 73.124183654785156 15.10700798034668 5
      vertex 5.1241822242736816 5.1070079803466797 5
    endloop
  endfacet
  facet normal -0 -0 1
    outer loop
      vertex 85 27 5
      vertex 85 73.107009887695312 5
      vertex 73.124183654785156 73.107009887695312 5
    endloop
  endfacet
  facet normal -0 -0 1
    outer loop
      vertex 85 27 5
      vertex 73.124183654785156 73.107009887695312 5
      vertex 73.124183654785156 27 5
    endloop
  endfacet
  facet normal -0 0 1
    outer loop
      vertex 85 85 5
      vertex 85 73.107009887695312 5
      vertex 95.124183654785156 95.107009887695312 5
    endloop
  endfacet
  facet normal 0 -0 1
    outer loop
      vertex 73.124183654785156 85 5
      vertex 85 85 5
      vertex 95.124183654785156 95.107009887695312 5
    endloop
  endfacet
endsolid OBJECT
