solid OBJECT
  facet normal 0 -1 0
    outer loop
      vertex 240.83331298828125 10.542881965637207 6.5
      vertex 240.83331298828125 10.542881965637207 5
      vertex 252.83331298828125 10.542881965637207 5
    endloop
  endfacet
  facet normal 0 -1 -0
    outer loop
      vertex 240.83331298828125 10.542881965637207 6.5
      vertex 252.83331298828125 10.542881965637207 5
      vertex 252.83331298828125 10.542881965637207 6.5
    endloop
  endfacet
  facet normal 1 -0 -0
    outer loop
      vertex 252.83331298828125 10.542881965637207 6.5
      vertex 252.83331298828125 10.542881965637207 5
      vertex 252.83331298828125 22.542882919311523 5
    endloop
  endfacet
  facet normal 1 0 0
    outer loop
      vertex 252.83331298828125 10.542881965637207 6.5
      vertex 252.83331298828125 22.542882919311523 5
      vertex 252.83331298828125 22.542882919311523 6.5
    endloop
  endfacet
  facet normal 0 1 -0
    outer loop
      vertex 252.83331298828125 22.542882919311523 6.5
      vertex 252.83331298828125 22.542882919311523 5
      vertex 240.83331298828125 22.542882919311523 5
    endloop
  endfacet
  facet normal 0 1 0
    outer loop
      vertex 252.83331298828125 22.542882919311523 6.5
      vertex 240.83331298828125 22.542882919311523 5
      vertex 240.83331298828125 22.542882919311523 6.5
    endloop
  endfacet
  facet normal -1 -0 0
    outer loop
      vertex 240.83331298828125 22.542882919311523 6.5
      vertex 240.83331298828125 22.542882919311523 5
      vertex 240.83331298828125 10.542881965637207 5
    endloop
  endfacet
  facet normal -1 0 -0
    outer loop
      vertex 240.83331298828125 22.542882919311523 6.5
      vertex 240.83331298828125 10.542881965637207 5
      vertex 240.83331298828125 10.542881965637207 6.5
    endloop
  endfacet
  facet normal 0 0 1
    outer loop
      vertex 240.83331298828125 22.542882919311523 6.5
      vertex 240.83331298828125 10.542881965637207 6.5
      vertex 252.83331298828125 10.542881965637207 6.5
    endloop
  endfacet
  facet normal 0 0 1
    outer loop
      vertex 240.83331298828125 22.542882919311523 6.5
      vertex 252.83331298828125 10.542881965637207 6.5
      vertex 252.83331298828125 22.542882919311523 6.5
    endloop
  endfacet
  facet normal 0 -1 0
    outer loop
      vertex 240.83331298828125 68.542884826660156 6.5
      vertex 240.83331298828125 68.542884826660156 5
      vertex 252.83331298828125 68.542884826660156 5
    endloop
  endfacet
  facet normal 0 -1 -0
    outer loop
      vertex 240.83331298828125 68.542884826660156 6.5
      vertex 252.83331298828125 68.542884826660156 5
      vertex 252.83331298828125 68.542884826660156 6.5
    endloop
  endfacet
  facet normal 1 -0 -0
    outer loop
      vertex 252.83331298828125 68.542884826660156 6.5
      vertex 252.83331298828125 68.542884826660156 5
      vertex 252.83331298828125 80.542884826660156 5
    endloop
  endfacet
  facet normal 1 0 0
    outer loop
      vertex 252.83331298828125 68.542884826660156 6.5
      vertex 252.83331298828125 80.542884826660156 5
      vertex 252.83331298828125 80.542884826660156 6.5
    endloop
  endfacet
  facet normal 0 1 -0
    outer loop
      vertex 252.83331298828125 80.542884826660156 6.5
      vertex 252.83331298828125 80.542884826660156 5
      vertex 240.83331298828125 80.542884826660156 5
    endloop
  endfacet
  facet normal 0 1 0
    outer loop
      vertex 252.83331298828125 80.542884826660156 6.5
      vertex 240.83331298828125 80.542884826660156 5
      vertex 240.83331298828125 80.542884826660156 6.5
    endloop
  endfacet
  facet normal -1 -0 0
    outer loop
      vertex 240.83331298828125 80.542884826660156 6.5
      vertex 240.83331298828125 80.542884826660156 5
      vertex 240.83331298828125 68.542884826660156 5
    endloop
  endfacet
  facet normal -1 0 -0
    outer loop
      vertex 240.83331298828125 80.542884826660156 6.5
      vertex 240.83331298828125 68.542884826660156 5
      vertex 240.83331298828125 68.542884826660156 6.5
    endloop
  endfacet
  facet normal -0 -0 1
    outer loop
      vertex 240.83331298828125 80.542884826660156 6.5
      vertex 240.83331298828125 68.542884826660156 6.5
      vertex 252.83331298828125 68.542884826660156 6.5
    endloop
  endfacet
  facet normal 0 0 1
    outer loop
      vertex 240.83331298828125 80.542884826660156 6.5
      vertex 252.83331298828125 68.542884826660156 6.5
      vertex 252.83331298828125 80.542884826660156 6.5
    endloop
  endfacet
  facet normal 0 -1 0
    outer loop
      vertex 182.83331298828125 68.542884826660156 6.5
      vertex 182.83331298828125 68.542884826660156 5
      vertex 194.83331298828125 68.542884826660156 5
    endloop
  endfacet
  facet normal 0 -1 -0
    outer loop
      vertex 182.83331298828125 68.542884826660156 6.5
      vertex 194.83331298828125 68.542884826660156 5
      vertex 194.83331298828125 68.542884826660156 6.5
    endloop
  endfacet
  facet normal 1 -0 -0
    outer loop
      vertex 194.83331298828125 68.542884826660156 6.5
      vertex 194.83331298828125 68.542884826660156 5
      vertex 194.83331298828125 80.542884826660156 5
    endloop
  endfacet
  facet normal 1 0 0
    outer loop
      vertex 194.83331298828125 68.542884826660156 6.5
      vertex 194.83331298828125 80.542884826660156 5
      vertex 194.83331298828125 80.542884826660156 6.5
    endloop
  endfacet
  facet normal 0 1 -0
    outer loop
      vertex 194.83331298828125 80.542884826660156 6.5
      vertex 194.83331298828125 80.542884826660156 5
      vertex 182.83331298828125 80.542884826660156 5
    endloop
  endfacet
  facet normal 0 1 0
    outer loop
      vertex 194.83331298828125 80.542884826660156 6.5
      vertex 182.83331298828125 80.542884826660156 5
      vertex 182.83331298828125 80.542884826660156 6.5
    endloop
  endfacet
  facet normal -1 -0 0
    outer loop
      vertex 182.83331298828125 80.542884826660156 6.5
      vertex 182.83331298828125 80.542884826660156 5
      vertex 182.83331298828125 68.542884826660156 5
    endloop
  endfacet
  facet normal -1 0 -0
    outer loop
      vertex 182.83331298828125 80.542884826660156 6.5
      vertex 182.83331298828125 68.542884826660156 5
      vertex 182.83331298828125 68.542884826660156 6.5
    endloop
  endfacet
  facet normal -0 -0 1
    outer loop
      vertex 182.83331298828125 80.542884826660156 6.5
      vertex 182.83331298828125 68.542884826660156 6.5
      vertex 194.83331298828125 68.542884826660156 6.5
    endloop
  endfacet
  facet normal 0 0 1
    outer loop
      vertex 182.83331298828125 80.542884826660156 6.5
      vertex 194.83331298828125 68.542884826660156 6.5
      vertex 194.83331298828125 80.542884826660156 6.5
    endloop
  endfacet
  facet normal 0 -1 0
    outer loop
      vertex 182.83331298828125 10.542881965637207 6.5
      vertex 182.83331298828125 10.542881965637207 5
      vertex 194.83331298828125 10.542881965637207 5
    endloop
  endfacet
  facet normal 0 -1 -0
    outer loop
      vertex 182.83331298828125 10.542881965637207 6.5
      vertex 194.83331298828125 10.542881965637207 5
      vertex 194.83331298828125 10.542881965637207 6.5
    endloop
  endfacet
  facet normal 1 -0 -0
    outer loop
      vertex 194.83331298828125 10.542881965637207 6.5
      vertex 194.83331298828125 10.542881965637207 5
      vertex 194.83331298828125 22.542882919311523 5
    endloop
  endfacet
  facet normal 1 0 0
    outer loop
      vertex 194.83331298828125 10.542881965637207 6.5
      vertex 194.83331298828125 22.542882919311523 5
      vertex 194.83331298828125 22.542882919311523 6.5
    endloop
  endfacet
  facet normal 0 1 -0
    outer loop
      vertex 194.83331298828125 22.542882919311523 6.5
      vertex 194.83331298828125 22.542882919311523 5
      vertex 182.83331298828125 22.542882919311523 5
    endloop
  endfacet
  facet normal 0 1 0
    outer loop
      vertex 194.83331298828125 22.542882919311523 6.5
      vertex 182.83331298828125 22.542882919311523 5
      vertex 182.83331298828125 22.542882919311523 6.5
    endloop
  endfacet
  facet normal -1 -0 0
    outer loop
      vertex 182.83331298828125 22.542882919311523 6.5
      vertex 182.83331298828125 22.542882919311523 5
      vertex 182.83331298828125 10.542881965637207 5
    endloop
  endfacet
  facet normal -1 0 -0
    outer loop
      vertex 182.83331298828125 22.542882919311523 6.5
      vertex 182.83331298828125 10.542881965637207 5
      vertex 182.83331298828125 10.542881965637207 6.5
    endloop
  endfacet
  facet normal 0 0 1
    outer loop
      vertex 182.83331298828125 22.542882919311523 6.5
      vertex 182.83331298828125 10.542881965637207 6.5
      vertex 194.83331298828125 10.542881965637207 6.5
    endloop
  endfacet
  facet normal 0 0 1
    outer loop
      vertex 182.83331298828125 22.542882919311523 6.5
      vertex 194.83331298828125 10.542881965637207 6.5
      vertex 194.83331298828125 22.542882919311523 6.5
    endloop
  endfacet
  facet normal -0 1 -0
    outer loop
      vertex 177.83331298828125 5.5428824424743652 10
      vertex 262.83331298828125 5.5428824424743652 10
      vertex 262.83331298828125 5.5428824424743652 5
    endloop
  endfacet
  facet normal -0 1 -0
    outer loop
      vertex 177.83331298828125 5.5428824424743652 10
      vertex 262.83331298828125 5.5428824424743652 5
      vertex 177.83331298828125 5.5428824424743652 5
    endloop
  endfacet
  facet normal -1 0 0
    outer loop
      vertex 262.83331298828125 5.5428824424743652 10
      vertex 262.83331298828125 85.542884826660156 10
      vertex 262.83331298828125 85.542884826660156 5
    endloop
  endfacet
  facet normal -1 0 0
    outer loop
      vertex 262.83331298828125 5.5428824424743652 10
      vertex 262.83331298828125 85.542884826660156 5
      vertex 262.83331298828125 5.5428824424743652 5
    endloop
  endfacet
  facet normal -0 -1 0
    outer loop
      vertex 262.83331298828125 85.542884826660156 10
      vertex 177.83331298828125 85.542884826660156 10
      vertex 177.83331298828125 85.542884826660156 5
    endloop
  endfacet
  facet normal -0 -1 0
    outer loop
      vertex 262.83331298828125 85.542884826660156 10
      vertex 177.83331298828125 85.542884826660156 5
      vertex 262.83331298828125 85.542884826660156 5
    endloop
  endfacet
  facet normal 1 0 -0
    outer loop
      vertex 177.83331298828125 85.542884826660156 10
      vertex 177.83331298828125 5.5428824424743652 10
      vertex 177.83331298828125 5.5428824424743652 5
    endloop
  endfacet
  facet normal 1 0 -0
    outer loop
      vertex 177.83331298828125 85.542884826660156 10
      vertex 177.83331298828125 5.5428824424743652 5
      vertex 177.83331298828125 85.542884826660156 5
    endloop
  endfacet
  facet normal 0 0 1
    outer loop
      vertex 182.83331298828125 22.542882919311523 5
      vertex 177.83331298828125 5.5428824424743652 5
      vertex 182.83331298828125 10.542881965637207 5
    endloop
  endfacet
  facet normal 0 -0 1
    outer loop
      vertex 194.83331298828125 10.542881965637207 5
      vertex 182.83331298828125 10.542881965637207 5
      vertex 177.83331298828125 5.5428824424743652 5
    endloop
  endfacet
  facet normal 0 -0 1
    outer loop
      vertex 240.83331298828125 10.542881965637207 5
      vertex 194.83331298828125 22.542882919311523 5
      vertex 194.83331298828125 10.542881965637207 5
    endloop
  endfacet
  facet normal 0 0 1
    outer loop
      vertex 182.83331298828125 68.542884826660156 5
      vertex 182.83331298828125 22.542882919311523 5
      vertex 194.83331298828125 22.542882919311523 5
    endloop
  endfacet
  facet normal 0 0 1
    outer loop
      vertex 182.83331298828125 68.542884826660156 5
      vertex 194.83331298828125 22.542882919311523 5
      vertex 194.83331298828125 68.542884826660156 5
    endloop
  endfacet
  facet normal 0 -0 1
    outer loop
      vertex 240.83331298828125 10.542881965637207 5
      vertex 194.83331298828125 10.542881965637207 5
      vertex 177.83331298828125 5.5428824424743652 5
    endloop
  endfacet
  facet normal -0 -0 1
    outer loop
      vertex 240.83331298828125 10.542881965637207 5
      vertex 177.83331298828125 5.5428824424743652 5
      vertex 262.83331298828125 5.5428824424743652 5
    endloop
  endfacet
  facet normal -0 0 1
    outer loop
      vertex 182.83331298828125 22.542882919311523 5
      vertex 182.83331298828125 68.542884826660156 5
      vertex 177.83331298828125 85.542884826660156 5
    endloop
  endfacet
  facet normal -0 0 1
    outer loop
      vertex 182.83331298828125 22.542882919311523 5
      vertex 177.83331298828125 85.542884826660156 5
      vertex 177.83331298828125 5.5428824424743652 5
    endloop
  endfacet
  facet normal -0 0 1
    outer loop
      vertex 182.83331298828125 80.542884826660156 5
      vertex 177.83331298828125 85.542884826660156 5
      vertex 182.83331298828125 68.542884826660156 5
    endloop
  endfacet
  facet normal 0 -0 1
    outer loop
      vertex 240.83331298828125 80.542884826660156 5
      vertex 194.83331298828125 80.542884826660156 5
      vertex 194.83331298828125 68.542884826660156 5
    endloop
  endfacet
  facet normal 0 -0 1
    outer loop
      vertex 240.83331298828125 80.542884826660156 5
      vertex 194.83331298828125 68.542884826660156 5
      vertex 240.83331298828125 68.542884826660156 5
    endloop
  endfacet
  facet normal 0 0 1
    outer loop
      vertex 177.83331298828125 85.542884826660156 5
      vertex 182.83331298828125 80.542884826660156 5
      vertex 194.83331298828125 80.542884826660156 5
    endloop
  endfacet
  facet normal 0 0 1
    outer loop
      vertex 194.83331298828125 80.542884826660156 5
      vertex 240.83331298828125 80.542884826660156 5
      vertex 262.83331298828125 85.542884826660156 5
    endloop
  endfacet
  facet normal 0 0 1
    outer loop
      vertex 194.83331298828125 80.542884826660156 5
      vertex 262.83331298828125 85.542884826660156 5
      vertex 177.83331298828125 85.542884826660156 5
    endloop
  endfacet
  facet normal 0 0 1
    outer loop
      vertex 194.83331298828125 68.542884826660156 5
      vertex 194.83331298828125 22.542882919311523 5
      vertex 240.83331298828125 68.542884826660156 5
    endloop
  endfacet
  facet normal -0 -0 1
    outer loop
      vertex 240.83331298828125 22.542882919311523 5
      vertex 240.83331298828125 68.542884826660156 5
      vertex 194.83331298828125 22.542882919311523 5
    endloop
  endfacet
  facet normal 0 0 1
    outer loop
      vertex 252.83331298828125 22.542882919311523 5
      vertex 252.83331298828125 10.542881965637207 5
      vertex 262.83331298828125 5.5428824424743652 5
    endloop
  endfacet
  facet normal 0 0 1
    outer loop
      vertex 240.83331298828125 10.542881965637207 5
      vertex 262.83331298828125 5.5428824424743652 5
      vertex 252.83331298828125 10.542881965637207 5
    endloop
  endfacet
  facet normal 0 0 1
    outer loop
      vertex 252.83331298828125 68.542884826660156 5
      vertex 252.83331298828125 22.542882919311523 5
      vertex 262.83331298828125 5.5428824424743652 5
    endloop
  endfacet
  facet normal 0 -0 1
    outer loop
      vertex 252.83331298828125 68.542884826660156 5
      vertex 262.83331298828125 5.5428824424743652 5
      vertex 262.83331298828125 85.542884826660156 5
    endloop
  endfacet
  facet normal 0 -0 1
    outer loop
      vertex 240.83331298828125 22.542882919311523 5
      vertex 252.83331298828125 22.542882919311523 5
      vertex 252.83331298828125 68.542884826660156 5
    endloop
  endfacet
  facet normal -0 0 1
    outer loop
      vertex 240.83331298828125 22.542882919311523 5
      vertex 252.83331298828125 68.542884826660156 5
      vertex 240.83331298828125 68.542884826660156 5
    endloop
  endfacet
  facet normal 0 -0 1
    outer loop
      vertex 252.83331298828125 80.542884826660156 5
      vertex 252.83331298828125 68.542884826660156 5
      vertex 262.83331298828125 85.542884826660156 5
    endloop
  endfacet
  facet normal 0 -0 1
    outer loop
      vertex 240.83331298828125 80.542884826660156 5
      vertex 252.83331298828125 80.542884826660156 5
      vertex 262.83331298828125 85.542884826660156 5
    endloop
  endfacet
  facet normal 0 0 1
    outer loop
      vertex 240.83331298828125 10.542881965637207 5
      vertex 240.83331298828125 22.542882919311523 5
      vertex 194.83331298828125 22.542882919311523 5
    endloop
  endfacet
  facet normal 0 -1 0
    outer loop
      vertex 172.83331298828125 0.54288220405578613 10
      vertex 172.83331298828125 0.54288220405578613 0
      vertex 267.83331298828125 0.54288220405578613 0
    endloop
  endfacet
  facet normal 0 -1 -0
    outer loop
      vertex 172.83331298828125 0.54288220405578613 10
      vertex 267.83331298828125 0.54288220405578613 0
      vertex 267.83331298828125 0.54288220405578613 10
    endloop
  endfacet
  facet normal 1 -0 -0
    outer loop
      vertex 267.83331298828125 0.54288220405578613 10
      vertex 267.83331298828125 0.54288220405578613 0
      vertex 267.83331298828125 90.542884826660156 0
    endloop
  endfacet
  facet normal 1 0 0
    outer loop
      vertex 267.83331298828125 0.54288220405578613 10
      vertex 267.83331298828125 90.542884826660156 0
      vertex 267.83331298828125 90.542884826660156 10
    endloop
  endfacet
  facet normal 0 1 -0
    outer loop
      vertex 267.83331298828125 90.542884826660156 10
      vertex 267.83331298828125 90.542884826660156 0
      vertex 172.83331298828125 90.542884826660156 0
    endloop
  endfacet
  facet normal 0 1 0
    outer loop
      vertex 267.83331298828125 90.542884826660156 10
      vertex 172.83331298828125 90.542884826660156 0
      vertex 172.83331298828125 90.542884826660156 10
    endloop
  endfacet
  facet normal -1 -0 0
    outer loop
      vertex 172.83331298828125 90.542884826660156 10
      vertex 172.83331298828125 90.542884826660156 0
      vertex 172.83331298828125 0.54288220405578613 0
    endloop
  endfacet
  facet normal -1 0 -0
    outer loop
      vertex 172.83331298828125 90.542884826660156 10
      vertex 172.83331298828125 0.54288220405578613 0
      vertex 172.83331298828125 0.54288220405578613 10
    endloop
  endfacet
  facet normal 0 0 -1
    outer loop
      vertex 172.83331298828125 90.542884826660156 0
      vertex 267.83331298828125 90.542884826660156 0
      vertex 267.83331298828125 0.54288220405578613 0
    endloop
  endfacet
  facet normal 0 0 -1
    outer loop
      vertex 172.83331298828125 90.542884826660156 0
      vertex 267.83331298828125 0.54288220405578613 0
      vertex 172.83331298828125 0.54288220405578613 0
    endloop
  endfacet
  facet normal 0 0 1
    outer loop
      vertex 177.83331298828125 5.5428824424743652 10
      vertex 177.83331298828125 85.542884826660156 10
      vertex 172.83331298828125 90.542884826660156 10
    endloop
  endfacet
  facet normal -0 0 1
    outer loop
      vertex 177.83331298828125 5.5428824424743652 10
      vertex 172.83331298828125 90.542884826660156 10
      vertex 172.83331298828125 0.54288220405578613 10
    endloop
  endfacet
  facet normal 0 -0 1
    outer loop
      vertex 262.83331298828125 5.5428824424743652 10
      vertex 177.83331298828125 5.5428824424743652 10
      vertex 172.83331298828125 0.54288220405578613 10
    endloop
  endfacet
  facet normal -0 -0 1
    outer loop
      vertex 262.83331298828125 5.5428824424743652 10
      vertex 172.83331298828125 0.54288220405578613 10
      vertex 267.83331298828125 0.54288220405578613 10
    endloop
  endfacet
  facet normal 0 0 1
    outer loop
      vertex 177.83331298828125 85.542884826660156 10
      vertex 262.83331298828125 85.542884826660156 10
      vertex 267.83331298828125 90.542884826660156 10
    endloop
  endfacet
  facet normal 0 0 1
    outer loop
      vertex 177.83331298828125 85.542884826660156 10
      vertex 267.83331298828125 90.542884826660156 10
      vertex 172.83331298828125 90.542884826660156 10
    endloop
  endfacet
  facet normal -0 -0 1
    outer loop
      vertex 267.83331298828125 0.54288220405578613 10
      vertex 267.83331298828125 90.542884826660156 10
      vertex 262.83331298828125 85.542884826660156 10
    endloop
  endfacet
  facet normal -0 -0 1
    outer loop
      vertex 267.83331298828125 0.54288220405578613 10
      vertex 262.83331298828125 85.542884826660156 10
      vertex 262.83331298828125 5.5428824424743652 10
    endloop
  endfacet
endsolid OBJECT
