solid OBJECT
  facet normal -1 0 -0
    outer loop
      vertex -184.9999874830246 -12.677829623222351 -5.1250001415610313
      vertex -184.9999874830246 -12.677829623222351 5.1250001415610313
      vertex -184.9999874830246 12.322176337242126 5.1250001415610313
    endloop
  endfacet
  facet normal -1 0 0
    outer loop
      vertex -184.9999874830246 -12.677829623222351 -5.1250001415610313
      vertex -184.9999874830246 12.322176337242126 5.1250001415610313
      vertex -184.9999874830246 12.322176337242126 -5.1250001415610313
    endloop
  endfacet
  facet normal -0 1 0
    outer loop
      vertex -184.9999874830246 12.322176337242126 -5.1250001415610313
      vertex -184.9999874830246 12.322176337242126 5.1250001415610313
      vertex 184.9999874830246 12.322176337242126 5.1250001415610313
    endloop
  endfacet
  facet normal 0 1 -0
    outer loop
      vertex -184.9999874830246 12.322176337242126 -5.1250001415610313
      vertex 184.9999874830246 12.322176337242126 5.1250001415610313
      vertex 184.9999874830246 12.322176337242126 -5.1250001415610313
    endloop
  endfacet
  facet normal 1 0 0
    outer loop
      vertex 184.9999874830246 12.322176337242126 -5.1250001415610313
      vertex 184.9999874830246 12.322176337242126 5.1250001415610313
      vertex 184.9999874830246 -12.677829623222351 5.1250001415610313
    endloop
  endfacet
  facet normal 1 0 -0
    outer loop
      vertex 184.9999874830246 12.322176337242126 -5.1250001415610313
      vertex 184.9999874830246 -12.677829623222351 5.1250001415610313
      vertex 184.9999874830246 -12.677829623222351 -5.1250001415610313
    endloop
  endfacet
  facet normal -0 -1 -0
    outer loop
      vertex 184.9999874830246 -12.677829623222351 -5.1250001415610313
      vertex 184.9999874830246 -12.677829623222351 5.1250001415610313
      vertex -184.9999874830246 -12.677829623222351 5.1250001415610313
    endloop
  endfacet
  facet normal 0 -1 0
    outer loop
      vertex 184.9999874830246 -12.677829623222351 -5.1250001415610313
      vertex -184.9999874830246 -12.677829623222351 5.1250001415610313
      vertex -184.9999874830246 -12.677829623222351 -5.1250001415610313
    endloop
  endfacet
  facet normal 0 0 -1
    outer loop
      vertex -184.9999874830246 12.322176337242126 -5.1250001415610313
      vertex 184.9999874830246 12.322176337242126 -5.1250001415610313
      vertex 184.9999874830246 -12.677829623222351 -5.1250001415610313
    endloop
  endfacet
  facet normal 0 0 -1
    outer loop
      vertex -184.9999874830246 12.322176337242126 -5.1250001415610313
      vertex 184.9999874830246 -12.677829623222351 -5.1250001415610313
      vertex -184.9999874830246 -12.677829623222351 -5.1250001415610313
    endloop
  endfacet
  facet normal -0 0 1
    outer loop
      vertex -179.99997735023499 7.3221811056137085 5.1250001415610313
      vertex -184.9999874830246 12.322176337242126 5.1250001415610313
      vertex -184.9999874830246 -12.677829623222351 5.1250001415610313
    endloop
  endfacet
  facet normal -0 -0 1
    outer loop
      vertex 184.9999874830246 -12.677829623222351 5.1250001415610313
      vertex 184.9999874830246 12.322176337242126 5.1250001415610313
      vertex 179.99997735023499 7.3221811056137085 5.1250001415610313
    endloop
  endfacet
  facet normal -0 -0 1
    outer loop
      vertex 184.9999874830246 -12.677829623222351 5.1250001415610313
      vertex 179.99997735023499 7.3221811056137085 5.1250001415610313
      vertex 179.99997735023499 -7.6778194904327393 5.1250001415610313
    endloop
  endfacet
  facet normal -0 0 1
    outer loop
      vertex -179.99997735023499 -7.6778194904327393 5.1250001415610313
      vertex -179.99997735023499 7.3221811056137085 5.1250001415610313
      vertex -184.9999874830246 -12.677829623222351 5.1250001415610313
    endloop
  endfacet
  facet normal -0 -0 1
    outer loop
      vertex 184.9999874830246 -12.677829623222351 5.1250001415610313
      vertex 179.99997735023499 -7.6778194904327393 5.1250001415610313
      vertex -179.99997735023499 -7.6778194904327393 5.1250001415610313
    endloop
  endfacet
  facet normal -0 0 1
    outer loop
      vertex -184.9999874830246 -12.677829623222351 5.1250001415610313
      vertex 184.9999874830246 -12.677829623222351 5.1250001415610313
      vertex -179.99997735023499 -7.6778194904327393 5.1250001415610313
    endloop
  endfacet
  facet normal 0 0 1
    outer loop
      vertex 179.99997735023499 7.3221811056137085 5.1250001415610313
      vertex 184.9999874830246 12.322176337242126 5.1250001415610313
      vertex -184.9999874830246 12.322176337242126 5.1250001415610313
    endloop
  endfacet
  facet normal 0 -0 1
    outer loop
      vertex 179.99997735023499 7.3221811056137085 5.1250001415610313
      vertex -184.9999874830246 12.322176337242126 5.1250001415610313
      vertex -179.99997735023499 7.3221811056137085 5.1250001415610313
    endloop
  endfacet
  facet normal 1 -0 -0
    outer loop
      vertex -179.99997735023499 -7.6778194904327393 5.1250001415610313
      vertex -179.99997735023499 -7.6778194904327393 -0.11499989341245964
      vertex -179.99997735023499 7.3221811056137085 -0.11499989341245964
    endloop
  endfacet
  facet normal 1 0 0
    outer loop
      vertex -179.99997735023499 -7.6778194904327393 5.1250001415610313
      vertex -179.99997735023499 7.3221811056137085 -0.11499989341245964
      vertex -179.99997735023499 7.3221811056137085 5.1250001415610313
    endloop
  endfacet
  facet normal 0 -1 0
    outer loop
      vertex -179.99997735023499 7.3221811056137085 5.1250001415610313
      vertex -179.99997735023499 7.3221811056137085 -0.11499989341245964
      vertex 179.99997735023499 7.3221811056137085 -0.11499989341245964
    endloop
  endfacet
  facet normal 0 -1 -0
    outer loop
      vertex -179.99997735023499 7.3221811056137085 5.1250001415610313
      vertex 179.99997735023499 7.3221811056137085 -0.11499989341245964
      vertex 179.99997735023499 7.3221811056137085 5.1250001415610313
    endloop
  endfacet
  facet normal -1 -0 -0
    outer loop
      vertex 179.99997735023499 7.3221811056137085 -0.11499989341245964
      vertex 179.99997735023499 -7.6778194904327393 -0.11499989341245964
      vertex 179.99997735023499 -7.6778194904327393 5.1250001415610313
    endloop
  endfacet
  facet normal -1 -0 -0
    outer loop
      vertex 179.99997735023499 7.3221811056137085 -0.11499989341245964
      vertex 179.99997735023499 -7.6778194904327393 5.1250001415610313
      vertex 179.99997735023499 7.3221811056137085 5.1250001415610313
    endloop
  endfacet
  facet normal 0 1 0
    outer loop
      vertex 179.99997735023499 -7.6778194904327393 -0.11499989341245964
      vertex -179.99997735023499 -7.6778194904327393 -0.11499989341245964
      vertex -179.99997735023499 -7.6778194904327393 5.1250001415610313
    endloop
  endfacet
  facet normal 0 1 0
    outer loop
      vertex 179.99997735023499 -7.6778194904327393 -0.11499989341245964
      vertex -179.99997735023499 -7.6778194904327393 5.1250001415610313
      vertex 179.99997735023499 -7.6778194904327393 5.1250001415610313
    endloop
  endfacet
  facet normal -0 -0 1
    outer loop
      vertex -179.99997735023499 7.3221811056137085 -0.11499989341245964
      vertex -179.99997735023499 -7.6778194904327393 -0.11499989341245964
      vertex 179.99997735023499 -7.6778194904327393 -0.11499989341245964
    endloop
  endfacet
  facet normal 0 0 1
    outer loop
      vertex -179.99997735023499 7.3221811056137085 -0.11499989341245964
      vertex 179.99997735023499 -7.6778194904327393 -0.11499989341245964
      vertex 179.99997735023499 7.3221811056137085 -0.11499989341245964
    endloop
  endfacet
endsolid OBJECT
