solid OBJECT
  facet normal -1 0 -0
    outer loop
      vertex -185.00000238418579 -12.633293896913528 -10.000001639127731
      vertex -185.00000238418579 -12.633293896913528 10.000001639127731
      vertex -185.00000238418579 12.366712063550949 10.000001639127731
    endloop
  endfacet
  facet normal -1 0 0
    outer loop
      vertex -185.00000238418579 -12.633293896913528 -10.000001639127731
      vertex -185.00000238418579 12.366712063550949 10.000001639127731
      vertex -185.00000238418579 12.366712063550949 -10.000001639127731
    endloop
  endfacet
  facet normal -0 1 0
    outer loop
      vertex -185.00000238418579 12.366712063550949 -10.000001639127731
      vertex -185.00000238418579 12.366712063550949 10.000001639127731
      vertex 185.00000238418579 12.366712063550949 10.000001639127731
    endloop
  endfacet
  facet normal 0 1 -0
    outer loop
      vertex -185.00000238418579 12.366712063550949 -10.000001639127731
      vertex 185.00000238418579 12.366712063550949 10.000001639127731
      vertex 185.00000238418579 12.366712063550949 -10.000001639127731
    endloop
  endfacet
  facet normal 1 0 0
    outer loop
      vertex 185.00000238418579 12.366712063550949 -10.000001639127731
      vertex 185.00000238418579 12.366712063550949 10.000001639127731
      vertex 185.00000238418579 -12.633293896913528 10.000001639127731
    endloop
  endfacet
  facet normal 1 0 -0
    outer loop
      vertex 185.00000238418579 12.366712063550949 -10.000001639127731
      vertex 185.00000238418579 -12.633293896913528 10.000001639127731
      vertex 185.00000238418579 -12.633293896913528 -10.000001639127731
    endloop
  endfacet
  facet normal -0 -1 -0
    outer loop
      vertex 185.00000238418579 -12.633293896913528 -10.000001639127731
      vertex 185.00000238418579 -12.633293896913528 10.000001639127731
      vertex -185.00000238418579 -12.633293896913528 10.000001639127731
    endloop
  endfacet
  facet normal 0 -1 0
    outer loop
      vertex 185.00000238418579 -12.633293896913528 -10.000001639127731
      vertex -185.00000238418579 -12.633293896913528 10.000001639127731
      vertex -185.00000238418579 -12.633293896913528 -10.000001639127731
    endloop
  endfacet
  facet normal 0 0 -1
    outer loop
      vertex -185.00000238418579 12.366712063550949 -10.000001639127731
      vertex 185.00000238418579 12.366712063550949 -10.000001639127731
      vertex 185.00000238418579 -12.633293896913528 -10.000001639127731
    endloop
  endfacet
  facet normal 0 0 -1
    outer loop
      vertex -185.00000238418579 12.366712063550949 -10.000001639127731
      vertex 185.00000238418579 -12.633293896913528 -10.000001639127731
      vertex -185.00000238418579 -12.633293896913528 -10.000001639127731
    endloop
  endfacet
  facet normal 0 -0 1
    outer loop
      vertex 180.00002205371857 -7.6332837641239166 10.000001639127731
      vertex 185.00000238418579 -12.633293896913528 10.000001639127731
      vertex 185.00000238418579 12.366712063550949 10.000001639127731
    endloop
  endfacet
  facet normal -0 0 1
    outer loop
      vertex 180.00002205371857 -7.6332837641239166 10.000001639127731
      vertex 185.00000238418579 12.366712063550949 10.000001639127731
      vertex 180.00002205371857 7.3667019307613373 10.000001639127731
    endloop
  endfacet
  facet normal 0 0 1
    outer loop
      vertex -180.00002205371857 7.3667019307613373 10.000001639127731
      vertex 180.00002205371857 7.3667019307613373 10.000001639127731
      vertex 185.00000238418579 12.366712063550949 10.000001639127731
    endloop
  endfacet
  facet normal -0 0 1
    outer loop
      vertex -185.00000238418579 -12.633293896913528 10.000001639127731
      vertex 185.00000238418579 -12.633293896913528 10.000001639127731
      vertex 180.00002205371857 -7.6332837641239166 10.000001639127731
    endloop
  endfacet
  facet normal -0 0 1
    outer loop
      vertex -185.00000238418579 -12.633293896913528 10.000001639127731
      vertex 180.00002205371857 -7.6332837641239166 10.000001639127731
      vertex -180.00002205371857 -7.6332837641239166 10.000001639127731
    endloop
  endfacet
  facet normal 0 0 1
    outer loop
      vertex -180.00002205371857 7.3667019307613373 10.000001639127731
      vertex 185.00000238418579 12.366712063550949 10.000001639127731
      vertex -185.00000238418579 12.366712063550949 10.000001639127731
    endloop
  endfacet
  facet normal -0 0 1
    outer loop
      vertex -185.00000238418579 -12.633293896913528 10.000001639127731
      vertex -180.00002205371857 -7.6332837641239166 10.000001639127731
      vertex -180.00002205371857 7.3667019307613373 10.000001639127731
    endloop
  endfacet
  facet normal 0 0 1
    outer loop
      vertex -185.00000238418579 12.366712063550949 10.000001639127731
      vertex -185.00000238418579 -12.633293896913528 10.000001639127731
      vertex -180.00002205371857 7.3667019307613373 10.000001639127731
    endloop
  endfacet
  facet normal 1 -0 -0
    outer loop
      vertex -180.00002205371857 -7.6332837641239166 10.000001639127731
      vertex -180.00002205371857 -7.6332837641239166 -4.9900012090802193
      vertex -180.00002205371857 7.3667019307613373 -4.9900012090802193
    endloop
  endfacet
  facet normal 1 0 0
    outer loop
      vertex -180.00002205371857 -7.6332837641239166 10.000001639127731
      vertex -180.00002205371857 7.3667019307613373 -4.9900012090802193
      vertex -180.00002205371857 7.3667019307613373 10.000001639127731
    endloop
  endfacet
  facet normal 0 -1 0
    outer loop
      vertex -180.00002205371857 7.3667019307613373 10.000001639127731
      vertex -180.00002205371857 7.3667019307613373 -4.9900012090802193
      vertex 180.00002205371857 7.3667019307613373 -4.9900012090802193
    endloop
  endfacet
  facet normal 0 -1 -0
    outer loop
      vertex -180.00002205371857 7.3667019307613373 10.000001639127731
      vertex 180.00002205371857 7.3667019307613373 -4.9900012090802193
      vertex 180.00002205371857 7.3667019307613373 10.000001639127731
    endloop
  endfacet
  facet normal -1 -0 -0
    outer loop
      vertex 180.00002205371857 7.3667019307613373 -4.9900012090802193
      vertex 180.00002205371857 -7.6332837641239166 -4.9900012090802193
      vertex 180.00002205371857 -7.6332837641239166 10.000001639127731
    endloop
  endfacet
  facet normal -1 -0 -0
    outer loop
      vertex 180.00002205371857 7.3667019307613373 -4.9900012090802193
      vertex 180.00002205371857 -7.6332837641239166 10.000001639127731
      vertex 180.00002205371857 7.3667019307613373 10.000001639127731
    endloop
  endfacet
  facet normal 0 1 0
    outer loop
      vertex 180.00002205371857 -7.6332837641239166 -4.9900012090802193
      vertex -180.00002205371857 -7.6332837641239166 -4.9900012090802193
      vertex -180.00002205371857 -7.6332837641239166 10.000001639127731
    endloop
  endfacet
  facet normal 0 1 -0
    outer loop
      vertex 180.00002205371857 -7.6332837641239166 -4.9900012090802193
      vertex -180.00002205371857 -7.6332837641239166 10.000001639127731
      vertex 180.00002205371857 -7.6332837641239166 10.000001639127731
    endloop
  endfacet
  facet normal -0 -0 1
    outer loop
      vertex -180.00002205371857 7.3667019307613373 -4.9900012090802193
      vertex -180.00002205371857 -7.6332837641239166 -4.9900012090802193
      vertex 180.00002205371857 -7.6332837641239166 -4.9900012090802193
    endloop
  endfacet
  facet normal 0 0 1
    outer loop
      vertex -180.00002205371857 7.3667019307613373 -4.9900012090802193
      vertex 180.00002205371857 -7.6332837641239166 -4.9900012090802193
      vertex 180.00002205371857 7.3667019307613373 -4.9900012090802193
    endloop
  endfacet
endsolid OBJECT
