solid OBJECT
  facet normal 0 -0 1
    outer loop
      vertex 24.380990982055664 10 5
      vertex 4.8184900283813477 5.0123724937438965 5
      vertex 36.380989074707031 10 5
    endloop
  endfacet
  facet normal -0 0 1
    outer loop
      vertex 75.505989074707031 10 5
      vertex 36.380989074707031 10 5
      vertex 4.8184900283813477 5.0123724937438965 5
    endloop
  endfacet
  facet normal 0 -0 1
    outer loop
      vertex 24.380990982055664 22 5
      vertex 4.8184900283813477 5.0123724937438965 5
      vertex 24.380990982055664 10 5
    endloop
  endfacet
  facet normal -0 0 1
    outer loop
      vertex 24.380990982055664 22 5
      vertex 36.380989074707031 54 5
      vertex 24.380990982055664 54 5
    endloop
  endfacet
  facet normal -0 0 1
    outer loop
      vertex 4.8184900283813477 5.0123724937438965 5
      vertex 24.380990982055664 22 5
      vertex 24.380990982055664 54 5
    endloop
  endfacet
  facet normal -0 -0 1
    outer loop
      vertex 36.380989074707031 22 5
      vertex 36.380989074707031 54 5
      vertex 24.380990982055664 22 5
    endloop
  endfacet
  facet normal -0 -0 1
    outer loop
      vertex 36.380989074707031 22 5
      vertex 36.380989074707031 10 5
      vertex 75.505989074707031 10 5
    endloop
  endfacet
  facet normal -0 0 1
    outer loop
      vertex 24.380990982055664 66 5
      vertex 4.8184900283813477 5.0123724937438965 5
      vertex 24.380990982055664 54 5
    endloop
  endfacet
  facet normal 0 -0 1
    outer loop
      vertex 4.8184900283813477 5.0123724937438965 5
      vertex 87.505989074707031 10 5
      vertex 75.505989074707031 10 5
    endloop
  endfacet
  facet normal 0 -0 1
    outer loop
      vertex 126.63098907470703 10 5
      vertex 87.505989074707031 22 5
      vertex 87.505989074707031 10 5
    endloop
  endfacet
  facet normal 0 0 1
    outer loop
      vertex 75.505989074707031 54 5
      vertex 75.505989074707031 66 5
      vertex 36.380989074707031 66 5
    endloop
  endfacet
  facet normal 0 -0 1
    outer loop
      vertex 75.505989074707031 54 5
      vertex 36.380989074707031 66 5
      vertex 36.380989074707031 54 5
    endloop
  endfacet
  facet normal 0 0 1
    outer loop
      vertex 75.505989074707031 22 5
      vertex 75.505989074707031 54 5
      vertex 36.380989074707031 54 5
    endloop
  endfacet
  facet normal 0 0 1
    outer loop
      vertex 75.505989074707031 54 5
      vertex 75.505989074707031 22 5
      vertex 87.505989074707031 54 5
    endloop
  endfacet
  facet normal -0 -0 1
    outer loop
      vertex 87.505989074707031 22 5
      vertex 87.505989074707031 54 5
      vertex 75.505989074707031 22 5
    endloop
  endfacet
  facet normal -0 -0 1
    outer loop
      vertex 36.380989074707031 54 5
      vertex 36.380989074707031 22 5
      vertex 75.505989074707031 22 5
    endloop
  endfacet
  facet normal -0 0 1
    outer loop
      vertex 87.505989074707031 54 5
      vertex 126.63098907470703 54 5
      vertex 126.63098907470703 66 5
    endloop
  endfacet
  facet normal -0 0 1
    outer loop
      vertex 87.505989074707031 54 5
      vertex 126.63098907470703 66 5
      vertex 87.505989074707031 66 5
    endloop
  endfacet
  facet normal 0 0 1
    outer loop
      vertex 75.505989074707031 10 5
      vertex 75.505989074707031 22 5
      vertex 36.380989074707031 22 5
    endloop
  endfacet
  facet normal -0 0 1
    outer loop
      vertex 87.505989074707031 10 5
      vertex 4.8184900283813477 5.0123724937438965 5
      vertex 126.63098907470703 10 5
    endloop
  endfacet
  facet normal -0 0 1
    outer loop
      vertex 36.380989074707031 98 5
      vertex 24.380990982055664 98 5
      vertex 24.380990982055664 66 5
    endloop
  endfacet
  facet normal 0 0 1
    outer loop
      vertex 36.380989074707031 98 5
      vertex 24.380990982055664 66 5
      vertex 36.380989074707031 66 5
    endloop
  endfacet
  facet normal 0 0 1
    outer loop
      vertex 4.8184900283813477 115.01237487792969 5
      vertex 24.380990982055664 66 5
      vertex 24.380990982055664 98 5
    endloop
  endfacet
  facet normal 0 0 1
    outer loop
      vertex 4.8184900283813477 115.01237487792969 5
      vertex 24.380990982055664 98 5
      vertex 24.380990982055664 110 5
    endloop
  endfacet
  facet normal 0 -0 1
    outer loop
      vertex 36.380989074707031 110 5
      vertex 4.8184900283813477 115.01237487792969 5
      vertex 24.380990982055664 110 5
    endloop
  endfacet
  facet normal -0 -0 1
    outer loop
      vertex 36.380989074707031 98 5
      vertex 36.380989074707031 66 5
      vertex 75.505989074707031 66 5
    endloop
  endfacet
  facet normal 0 0 1
    outer loop
      vertex 36.380989074707031 98 5
      vertex 75.505989074707031 66 5
      vertex 75.505989074707031 98 5
    endloop
  endfacet
  facet normal -0 0 1
    outer loop
      vertex 4.8184900283813477 5.0123724937438965 5
      vertex 24.380990982055664 66 5
      vertex 4.8184900283813477 115.01237487792969 5
    endloop
  endfacet
  facet normal 0 0 1
    outer loop
      vertex 75.505989074707031 98 5
      vertex 75.505989074707031 66 5
      vertex 87.505989074707031 66 5
    endloop
  endfacet
  facet normal -0 0 1
    outer loop
      vertex 87.505989074707031 98 5
      vertex 75.505989074707031 98 5
      vertex 87.505989074707031 66 5
    endloop
  endfacet
  facet normal -0 0 1
    outer loop
      vertex 36.380989074707031 98 5
      vertex 75.505989074707031 98 5
      vertex 75.505989074707031 110 5
    endloop
  endfacet
  facet normal -0 0 1
    outer loop
      vertex 36.380989074707031 98 5
      vertex 75.505989074707031 110 5
      vertex 36.380989074707031 110 5
    endloop
  endfacet
  facet normal 0 0 1
    outer loop
      vertex 4.8184900283813477 115.01237487792969 5
      vertex 36.380989074707031 110 5
      vertex 75.505989074707031 110 5
    endloop
  endfacet
  facet normal 0 -0 1
    outer loop
      vertex 126.63098907470703 110 5
      vertex 87.505989074707031 110 5
      vertex 87.505989074707031 98 5
    endloop
  endfacet
  facet normal 0 -0 1
    outer loop
      vertex 4.8184900283813477 115.01237487792969 5
      vertex 75.505989074707031 110 5
      vertex 87.505989074707031 110 5
    endloop
  endfacet
  facet normal 0 -0 1
    outer loop
      vertex 126.63098907470703 98 5
      vertex 87.505989074707031 98 5
      vertex 87.505989074707031 66 5
    endloop
  endfacet
  facet normal 0 -0 1
    outer loop
      vertex 126.63098907470703 110 5
      vertex 4.8184900283813477 115.01237487792969 5
      vertex 87.505989074707031 110 5
    endloop
  endfacet
  facet normal -0 0 1
    outer loop
      vertex 87.505989074707031 22 5
      vertex 126.63098907470703 54 5
      vertex 87.505989074707031 54 5
    endloop
  endfacet
  facet normal 0 0 1
    outer loop
      vertex 209.31849670410156 5.0123724937438965 5
      vertex 138.63099670410156 10 5
      vertex 126.63098907470703 10 5
    endloop
  endfacet
  facet normal -0 0 1
    outer loop
      vertex 87.505989074707031 22 5
      vertex 126.63098907470703 22 5
      vertex 126.63098907470703 54 5
    endloop
  endfacet
  facet normal -0 0 1
    outer loop
      vertex 138.63099670410156 54 5
      vertex 126.63098907470703 54 5
      vertex 126.63098907470703 22 5
    endloop
  endfacet
  facet normal 0 0 1
    outer loop
      vertex 138.63099670410156 54 5
      vertex 126.63098907470703 22 5
      vertex 138.63099670410156 22 5
    endloop
  endfacet
  facet normal 0 -0 1
    outer loop
      vertex 177.75599670410156 54 5
      vertex 138.63099670410156 54 5
      vertex 138.63099670410156 22 5
    endloop
  endfacet
  facet normal 0 -0 1
    outer loop
      vertex 177.75599670410156 54 5
      vertex 138.63099670410156 22 5
      vertex 177.75599670410156 22 5
    endloop
  endfacet
  facet normal -0 -0 1
    outer loop
      vertex 138.63099670410156 22 5
      vertex 138.63099670410156 10 5
      vertex 177.75599670410156 10 5
    endloop
  endfacet
  facet normal 0 0 1
    outer loop
      vertex 126.63098907470703 10 5
      vertex 126.63098907470703 22 5
      vertex 87.505989074707031 22 5
    endloop
  endfacet
  facet normal 0 0 1
    outer loop
      vertex 189.75599670410156 10 5
      vertex 177.75599670410156 10 5
      vertex 209.31849670410156 5.0123724937438965 5
    endloop
  endfacet
  facet normal 0 0 1
    outer loop
      vertex 138.63099670410156 10 5
      vertex 209.31849670410156 5.0123724937438965 5
      vertex 177.75599670410156 10 5
    endloop
  endfacet
  facet normal -0 -0 1
    outer loop
      vertex 189.75599670410156 22 5
      vertex 189.75599670410156 10 5
      vertex 209.31849670410156 5.0123724937438965 5
    endloop
  endfacet
  facet normal 0 -0 1
    outer loop
      vertex 177.75599670410156 22 5
      vertex 189.75599670410156 22 5
      vertex 189.75599670410156 54 5
    endloop
  endfacet
  facet normal -0 0 1
    outer loop
      vertex 177.75599670410156 22 5
      vertex 189.75599670410156 54 5
      vertex 177.75599670410156 54 5
    endloop
  endfacet
  facet normal -0 -0 1
    outer loop
      vertex 209.31849670410156 5.0123724937438965 5
      vertex 189.75599670410156 54 5
      vertex 189.75599670410156 22 5
    endloop
  endfacet
  facet normal 0 0 1
    outer loop
      vertex 189.75599670410156 54 5
      vertex 209.31849670410156 5.0123724937438965 5
      vertex 189.75599670410156 66 5
    endloop
  endfacet
  facet normal 0 0 1
    outer loop
      vertex 177.75599670410156 10 5
      vertex 177.75599670410156 22 5
      vertex 138.63099670410156 22 5
    endloop
  endfacet
  facet normal -0 -0 1
    outer loop
      vertex 209.31849670410156 5.0123724937438965 5
      vertex 126.63098907470703 10 5
      vertex 4.8184900283813477 5.0123724937438965 5
    endloop
  endfacet
  facet normal 0 -0 1
    outer loop
      vertex 177.75599670410156 66 5
      vertex 138.63099670410156 54 5
      vertex 177.75599670410156 54 5
    endloop
  endfacet
  facet normal 0 0 1
    outer loop
      vertex 126.63098907470703 98 5
      vertex 126.63098907470703 66 5
      vertex 138.63099670410156 66 5
    endloop
  endfacet
  facet normal 0 0 1
    outer loop
      vertex 126.63098907470703 98 5
      vertex 138.63099670410156 66 5
      vertex 138.63099670410156 98 5
    endloop
  endfacet
  facet normal 0 0 1
    outer loop
      vertex 126.63098907470703 66 5
      vertex 126.63098907470703 98 5
      vertex 87.505989074707031 66 5
    endloop
  endfacet
  facet normal 0 -0 1
    outer loop
      vertex 177.75599670410156 110 5
      vertex 138.63099670410156 110 5
      vertex 138.63099670410156 98 5
    endloop
  endfacet
  facet normal 0 -0 1
    outer loop
      vertex 209.31849670410156 115.01237487792969 5
      vertex 126.63098907470703 110 5
      vertex 138.63099670410156 110 5
    endloop
  endfacet
  facet normal -0 -0 1
    outer loop
      vertex 138.63099670410156 98 5
      vertex 138.63099670410156 66 5
      vertex 177.75599670410156 66 5
    endloop
  endfacet
  facet normal 0 0 1
    outer loop
      vertex 138.63099670410156 98 5
      vertex 177.75599670410156 66 5
      vertex 177.75599670410156 98 5
    endloop
  endfacet
  facet normal 0 0 1
    outer loop
      vertex 126.63098907470703 98 5
      vertex 126.63098907470703 110 5
      vertex 87.505989074707031 98 5
    endloop
  endfacet
  facet normal 0 0 1
    outer loop
      vertex 177.75599670410156 98 5
      vertex 177.75599670410156 66 5
      vertex 189.75599670410156 66 5
    endloop
  endfacet
  facet normal 0 0 1
    outer loop
      vertex 177.75599670410156 98 5
      vertex 189.75599670410156 66 5
      vertex 189.75599670410156 98 5
    endloop
  endfacet
  facet normal 0 -0 1
    outer loop
      vertex 177.75599670410156 110 5
      vertex 189.75599670410156 110 5
      vertex 209.31849670410156 115.01237487792969 5
    endloop
  endfacet
  facet normal -0 0 1
    outer loop
      vertex 189.75599670410156 98 5
      vertex 209.31849670410156 115.01237487792969 5
      vertex 189.75599670410156 110 5
    endloop
  endfacet
  facet normal 0 -0 1
    outer loop
      vertex 209.31849670410156 115.01237487792969 5
      vertex 189.75599670410156 98 5
      vertex 189.75599670410156 66 5
    endloop
  endfacet
  facet normal 0 -0 1
    outer loop
      vertex 138.63099670410156 110 5
      vertex 177.75599670410156 110 5
      vertex 209.31849670410156 115.01237487792969 5
    endloop
  endfacet
  facet normal 0 -0 1
    outer loop
      vertex 209.31849670410156 115.01237487792969 5
      vertex 189.75599670410156 66 5
      vertex 209.31849670410156 5.0123724937438965 5
    endloop
  endfacet
  facet normal -0 0 1
    outer loop
      vertex 138.63099670410156 98 5
      vertex 177.75599670410156 98 5
      vertex 177.75599670410156 110 5
    endloop
  endfacet
  facet normal 0 -0 1
    outer loop
      vertex 138.63099670410156 66 5
      vertex 138.63099670410156 54 5
      vertex 177.75599670410156 66 5
    endloop
  endfacet
  facet normal 0 0 1
    outer loop
      vertex 4.8184900283813477 115.01237487792969 5
      vertex 126.63098907470703 110 5
      vertex 209.31849670410156 115.01237487792969 5
    endloop
  endfacet
  facet normal 0 1 0
    outer loop
      vertex 24.818490982055664 5.0123724937438965 7.5
      vertex 4.8184900283813477 5.0123724937438965 5
      vertex 4.8184900283813477 5.0123724937438965 7.5
    endloop
  endfacet
  facet normal 0 1 -0
    outer loop
      vertex 199.31849670410156 5.0123724937438965 10
      vertex 209.31849670410156 5.0123724937438965 7.5
      vertex 24.818490982055664 5.0123724937438965 7.5
    endloop
  endfacet
  facet normal 0 1 0
    outer loop
      vertex 199.31849670410156 5.0123724937438965 10
      vertex 24.818490982055664 5.0123724937438965 7.5
      vertex 24.818490982055664 5.0123724937438965 10
    endloop
  endfacet
  facet normal 0 1 0
    outer loop
      vertex 4.8184900283813477 5.0123724937438965 5
      vertex 24.818490982055664 5.0123724937438965 7.5
      vertex 209.31849670410156 5.0123724937438965 7.5
    endloop
  endfacet
  facet normal 0 1 -0
    outer loop
      vertex 4.8184900283813477 5.0123724937438965 5
      vertex 209.31849670410156 5.0123724937438965 7.5
      vertex 209.31849670410156 5.0123724937438965 5
    endloop
  endfacet
  facet normal 0 1 0
    outer loop
      vertex 209.31849670410156 5.0123724937438965 7.5
      vertex 199.31849670410156 5.0123724937438965 10
      vertex 209.31849670410156 5.0123724937438965 10
    endloop
  endfacet
  facet normal 0 -1 0
    outer loop
      vertex 209.31849670410156 115.01237487792969 7.5
      vertex 199.31849670410156 115.01237487792969 10
      vertex 24.818490982055664 115.01237487792969 10
    endloop
  endfacet
  facet normal 0 -1 0
    outer loop
      vertex 209.31849670410156 115.01237487792969 7.5
      vertex 24.818490982055664 115.01237487792969 10
      vertex 24.818490982055664 115.01237487792969 7.5
    endloop
  endfacet
  facet normal -0 -1 -0
    outer loop
      vertex 209.31849670410156 115.01237487792969 7.5
      vertex 209.31849670410156 115.01237487792969 10
      vertex 199.31849670410156 115.01237487792969 10
    endloop
  endfacet
  facet normal 0 -1 0
    outer loop
      vertex 24.818490982055664 115.01237487792969 7.5
      vertex 4.8184900283813477 115.01237487792969 5
      vertex 209.31849670410156 115.01237487792969 5
    endloop
  endfacet
  facet normal 0 -1 -0
    outer loop
      vertex 24.818490982055664 115.01237487792969 7.5
      vertex 209.31849670410156 115.01237487792969 5
      vertex 209.31849670410156 115.01237487792969 7.5
    endloop
  endfacet
  facet normal 0 -1 0
    outer loop
      vertex 4.8184900283813477 115.01237487792969 7.5
      vertex 4.8184900283813477 115.01237487792969 5
      vertex 24.818490982055664 115.01237487792969 7.5
    endloop
  endfacet
  facet normal 1 0 -0
    outer loop
      vertex 4.8184900283813477 115.01237487792969 7.5
      vertex 4.8184900283813477 5.0123724937438965 7.5
      vertex 4.8184900283813477 5.0123724937438965 5
    endloop
  endfacet
  facet normal 1 0 -0
    outer loop
      vertex 4.8184900283813477 115.01237487792969 7.5
      vertex 4.8184900283813477 5.0123724937438965 5
      vertex 4.8184900283813477 115.01237487792969 5
    endloop
  endfacet
  facet normal -1 0 0
    outer loop
      vertex 229.31849670410156 5.0123724937438965 10
      vertex 229.31849670410156 115.01237487792969 10
      vertex 229.31849670410156 115.01237487792969 7.5
    endloop
  endfacet
  facet normal -1 0 0
    outer loop
      vertex 229.31849670410156 5.0123724937438965 10
      vertex 229.31849670410156 115.01237487792969 7.5
      vertex 229.31849670410156 5.0123724937438965 7.5
    endloop
  endfacet
  facet normal -0 -1 0
    outer loop
      vertex 229.31849670410156 115.01237487792969 10
      vertex 209.31849670410156 115.01237487792969 10
      vertex 209.31849670410156 115.01237487792969 7.5
    endloop
  endfacet
  facet normal -0 -1 0
    outer loop
      vertex 229.31849670410156 115.01237487792969 10
      vertex 209.31849670410156 115.01237487792969 7.5
      vertex 229.31849670410156 115.01237487792969 7.5
    endloop
  endfacet
  facet normal -1 0 0
    outer loop
      vertex 209.31849670410156 5.0123724937438965 7.5
      vertex 209.31849670410156 115.01237487792969 7.5
      vertex 209.31849670410156 115.01237487792969 5
    endloop
  endfacet
  facet normal -1 0 0
    outer loop
      vertex 209.31849670410156 5.0123724937438965 7.5
      vertex 209.31849670410156 115.01237487792969 5
      vertex 209.31849670410156 5.0123724937438965 5
    endloop
  endfacet
  facet normal -0 1 -0
    outer loop
      vertex 209.31849670410156 5.0123724937438965 10
      vertex 229.31849670410156 5.0123724937438965 10
      vertex 229.31849670410156 5.0123724937438965 7.5
    endloop
  endfacet
  facet normal -0 1 -0
    outer loop
      vertex 209.31849670410156 5.0123724937438965 10
      vertex 229.31849670410156 5.0123724937438965 7.5
      vertex 209.31849670410156 5.0123724937438965 7.5
    endloop
  endfacet
  facet normal 0 0 1
    outer loop
      vertex 209.31849670410156 115.01237487792969 7.5
      vertex 209.31849670410156 5.0123724937438965 7.5
      vertex 229.31849670410156 5.0123724937438965 7.5
    endloop
  endfacet
  facet normal 0 0 1
    outer loop
      vertex 209.31849670410156 115.01237487792969 7.5
      vertex 229.31849670410156 5.0123724937438965 7.5
      vertex 229.31849670410156 115.01237487792969 7.5
    endloop
  endfacet
  facet normal -0 -1 -0
    outer loop
      vertex -0.18150977790355682 0.012372482568025589 10
      vertex -0.18150977790355682 0.012372482568025589 0
      vertex 4.8184900283813477 0.012372482568025589 7.5
    endloop
  endfacet
  facet normal 0 -1 0
    outer loop
      vertex 24.818490982055664 0.012372482568025589 7.5
      vertex 4.8184900283813477 0.012372482568025589 7.5
      vertex -0.18150977790355682 0.012372482568025589 0
    endloop
  endfacet
  facet normal -0 -1 -0
    outer loop
      vertex 4.8184900283813477 0.012372482568025589 7.5
      vertex 4.8184900283813477 0.012372482568025589 10
      vertex -0.18150977790355682 0.012372482568025589 10
    endloop
  endfacet
  facet normal -0 -1 0
    outer loop
      vertex 234.31849670410156 0.012372482568025589 10
      vertex 24.818490982055664 0.012372482568025589 7.5
      vertex 234.31849670410156 0.012372482568025589 0
    endloop
  endfacet
  facet normal 0 -1 -0
    outer loop
      vertex -0.18150977790355682 0.012372482568025589 0
      vertex 234.31849670410156 0.012372482568025589 0
      vertex 24.818490982055664 0.012372482568025589 7.5
    endloop
  endfacet
  facet normal 0 -1 -0
    outer loop
      vertex 24.818490982055664 0.012372482568025589 7.5
      vertex 234.31849670410156 0.012372482568025589 10
      vertex 24.818490982055664 0.012372482568025589 10
    endloop
  endfacet
  facet normal 1 -0 -0
    outer loop
      vertex 234.31849670410156 0.012372482568025589 10
      vertex 234.31849670410156 0.012372482568025589 0
      vertex 234.31849670410156 120.01237487792969 0
    endloop
  endfacet
  facet normal 1 0 0
    outer loop
      vertex 234.31849670410156 0.012372482568025589 10
      vertex 234.31849670410156 120.01237487792969 0
      vertex 234.31849670410156 120.01237487792969 10
    endloop
  endfacet
  facet normal 0 1 -0
    outer loop
      vertex 234.31849670410156 120.01237487792969 10
      vertex 234.31849670410156 120.01237487792969 0
      vertex 24.818490982055664 120.01237487792969 7.5
    endloop
  endfacet
  facet normal 0 1 -0
    outer loop
      vertex -0.18150977790355682 120.01237487792969 0
      vertex 24.818490982055664 120.01237487792969 7.5
      vertex 234.31849670410156 120.01237487792969 0
    endloop
  endfacet
  facet normal -0 1 0
    outer loop
      vertex 24.818490982055664 120.01237487792969 7.5
      vertex 24.818490982055664 120.01237487792969 10
      vertex 234.31849670410156 120.01237487792969 10
    endloop
  endfacet
  facet normal -0 1 -0
    outer loop
      vertex -0.18150977790355682 120.01237487792969 10
      vertex 4.8184900283813477 120.01237487792969 7.5
      vertex -0.18150977790355682 120.01237487792969 0
    endloop
  endfacet
  facet normal 0 1 0
    outer loop
      vertex 24.818490982055664 120.01237487792969 7.5
      vertex -0.18150977790355682 120.01237487792969 0
      vertex 4.8184900283813477 120.01237487792969 7.5
    endloop
  endfacet
  facet normal 0 1 0
    outer loop
      vertex 4.8184900283813477 120.01237487792969 7.5
      vertex -0.18150977790355682 120.01237487792969 10
      vertex 4.8184900283813477 120.01237487792969 10
    endloop
  endfacet
  facet normal -1 -0 0
    outer loop
      vertex -0.18150977790355682 120.01237487792969 10
      vertex -0.18150977790355682 120.01237487792969 0
      vertex -0.18150977790355682 0.012372482568025589 0
    endloop
  endfacet
  facet normal -1 0 -0
    outer loop
      vertex -0.18150977790355682 120.01237487792969 10
      vertex -0.18150977790355682 0.012372482568025589 0
      vertex -0.18150977790355682 0.012372482568025589 10
    endloop
  endfacet
  facet normal 0 0 -1
    outer loop
      vertex -0.18150977790355682 120.01237487792969 0
      vertex 234.31849670410156 120.01237487792969 0
      vertex 234.31849670410156 0.012372482568025589 0
    endloop
  endfacet
  facet normal 0 0 -1
    outer loop
      vertex -0.18150977790355682 120.01237487792969 0
      vertex 234.31849670410156 0.012372482568025589 0
      vertex -0.18150977790355682 0.012372482568025589 0
    endloop
  endfacet
  facet normal -1 0 0
    outer loop
      vertex 24.818490982055664 0.012372482568025589 10
      vertex 24.818490982055664 5.0123724937438965 10
      vertex 24.818490982055664 5.0123724937438965 7.5
    endloop
  endfacet
  facet normal -1 0 0
    outer loop
      vertex 24.818490982055664 0.012372482568025589 10
      vertex 24.818490982055664 5.0123724937438965 7.5
      vertex 24.818490982055664 0.012372482568025589 7.5
    endloop
  endfacet
  facet normal 1 -0 0
    outer loop
      vertex 4.8184900283813477 115.01237487792969 7.5
      vertex 4.8184900283813477 120.01237487792969 7.5
      vertex 4.8184900283813477 120.01237487792969 10
    endloop
  endfacet
  facet normal 1 0 -0
    outer loop
      vertex 4.8184900283813477 0.012372482568025589 10
      vertex 4.8184900283813477 5.0123724937438965 7.5
      vertex 4.8184900283813477 115.01237487792969 7.5
    endloop
  endfacet
  facet normal 1 0 0
    outer loop
      vertex 4.8184900283813477 0.012372482568025589 10
      vertex 4.8184900283813477 115.01237487792969 7.5
      vertex 4.8184900283813477 120.01237487792969 10
    endloop
  endfacet
  facet normal 1 -0 -0
    outer loop
      vertex 4.8184900283813477 0.012372482568025589 10
      vertex 4.8184900283813477 0.012372482568025589 7.5
      vertex 4.8184900283813477 5.0123724937438965 7.5
    endloop
  endfacet
  facet normal 0 0 1
    outer loop
      vertex -0.18150977790355682 120.01237487792969 10
      vertex -0.18150977790355682 0.012372482568025589 10
      vertex 4.8184900283813477 0.012372482568025589 10
    endloop
  endfacet
  facet normal 0 0 1
    outer loop
      vertex -0.18150977790355682 120.01237487792969 10
      vertex 4.8184900283813477 0.012372482568025589 10
      vertex 4.8184900283813477 120.01237487792969 10
    endloop
  endfacet
  facet normal 0 -0 1
    outer loop
      vertex 199.31849670410156 5.0123724937438965 10
      vertex 24.818490982055664 5.0123724937438965 10
      vertex 24.818490982055664 0.012372482568025589 10
    endloop
  endfacet
  facet normal -0 -0 1
    outer loop
      vertex 199.31849670410156 5.0123724937438965 10
      vertex 24.818490982055664 0.012372482568025589 10
      vertex 234.31849670410156 0.012372482568025589 10
    endloop
  endfacet
  facet normal 0 0 1
    outer loop
      vertex 24.818490982055664 115.01237487792969 10
      vertex 199.31849670410156 115.01237487792969 10
      vertex 234.31849670410156 120.01237487792969 10
    endloop
  endfacet
  facet normal -0 0 1
    outer loop
      vertex 24.818490982055664 115.01237487792969 10
      vertex 234.31849670410156 120.01237487792969 10
      vertex 24.818490982055664 120.01237487792969 10
    endloop
  endfacet
  facet normal -0 -0 1
    outer loop
      vertex 229.31849670410156 5.0123724937438965 10
      vertex 209.31849670410156 5.0123724937438965 10
      vertex 234.31849670410156 0.012372482568025589 10
    endloop
  endfacet
  facet normal 0 0 1
    outer loop
      vertex 199.31849670410156 5.0123724937438965 10
      vertex 234.31849670410156 0.012372482568025589 10
      vertex 209.31849670410156 5.0123724937438965 10
    endloop
  endfacet
  facet normal -0 -0 1
    outer loop
      vertex 234.31849670410156 0.012372482568025589 10
      vertex 234.31849670410156 120.01237487792969 10
      vertex 229.31849670410156 115.01237487792969 10
    endloop
  endfacet
  facet normal 0 0 1
    outer loop
      vertex 234.31849670410156 0.012372482568025589 10
      vertex 229.31849670410156 115.01237487792969 10
      vertex 229.31849670410156 5.0123724937438965 10
    endloop
  endfacet
  facet normal 0 -0 1
    outer loop
      vertex 234.31849670410156 120.01237487792969 10
      vertex 209.31849670410156 115.01237487792969 10
      vertex 229.31849670410156 115.01237487792969 10
    endloop
  endfacet
  facet normal 0 -0 1
    outer loop
      vertex 199.31849670410156 115.01237487792969 10
      vertex 209.31849670410156 115.01237487792969 10
      vertex 234.31849670410156 120.01237487792969 10
    endloop
  endfacet
  facet normal -1 0 0
    outer loop
      vertex 24.818490982055664 115.01237487792969 10
      vertex 24.818490982055664 120.01237487792969 10
      vertex 24.818490982055664 120.01237487792969 7.5
    endloop
  endfacet
  facet normal -1 0 0
    outer loop
      vertex 24.818490982055664 115.01237487792969 10
      vertex 24.818490982055664 120.01237487792969 7.5
      vertex 24.818490982055664 115.01237487792969 7.5
    endloop
  endfacet
  facet normal -0 -0 1
    outer loop
      vertex 4.8184900283813477 5.0123724937438965 7.5
      vertex 4.8184900283813477 0.012372482568025589 7.5
      vertex 24.818490982055664 0.012372482568025589 7.5
    endloop
  endfacet
  facet normal 0 0 1
    outer loop
      vertex 4.8184900283813477 5.0123724937438965 7.5
      vertex 24.818490982055664 0.012372482568025589 7.5
      vertex 24.818490982055664 5.0123724937438965 7.5
    endloop
  endfacet
  facet normal -0 -0 1
    outer loop
      vertex 4.8184900283813477 120.01237487792969 7.5
      vertex 4.8184900283813477 115.01237487792969 7.5
      vertex 24.818490982055664 115.01237487792969 7.5
    endloop
  endfacet
  facet normal 0 0 1
    outer loop
      vertex 4.8184900283813477 120.01237487792969 7.5
      vertex 24.818490982055664 115.01237487792969 7.5
      vertex 24.818490982055664 120.01237487792969 7.5
    endloop
  endfacet
  facet normal -0 -0 1
    outer loop
      vertex 126.63098907470703 110 6.5
      vertex 126.63098907470703 98 6.5
      vertex 138.63099670410156 98 6.5
    endloop
  endfacet
  facet normal 0 0 1
    outer loop
      vertex 126.63098907470703 110 6.5
      vertex 138.63099670410156 98 6.5
      vertex 138.63099670410156 110 6.5
    endloop
  endfacet
  facet normal 0 -1 0
    outer loop
      vertex 126.63098907470703 98 6.5
      vertex 126.63098907470703 98 5
      vertex 138.63099670410156 98 5
    endloop
  endfacet
  facet normal 0 -1 -0
    outer loop
      vertex 126.63098907470703 98 6.5
      vertex 138.63099670410156 98 5
      vertex 138.63099670410156 98 6.5
    endloop
  endfacet
  facet normal 1 -0 -0
    outer loop
      vertex 138.63099670410156 98 6.5
      vertex 138.63099670410156 98 5
      vertex 138.63099670410156 110 5
    endloop
  endfacet
  facet normal 1 0 0
    outer loop
      vertex 138.63099670410156 98 6.5
      vertex 138.63099670410156 110 5
      vertex 138.63099670410156 110 6.5
    endloop
  endfacet
  facet normal 0 1 -0
    outer loop
      vertex 138.63099670410156 110 6.5
      vertex 138.63099670410156 110 5
      vertex 126.63098907470703 110 5
    endloop
  endfacet
  facet normal 0 1 0
    outer loop
      vertex 138.63099670410156 110 6.5
      vertex 126.63098907470703 110 5
      vertex 126.63098907470703 110 6.5
    endloop
  endfacet
  facet normal -1 -0 0
    outer loop
      vertex 126.63098907470703 110 6.5
      vertex 126.63098907470703 110 5
      vertex 126.63098907470703 98 5
    endloop
  endfacet
  facet normal -1 0 -0
    outer loop
      vertex 126.63098907470703 110 6.5
      vertex 126.63098907470703 98 5
      vertex 126.63098907470703 98 6.5
    endloop
  endfacet
  facet normal -0 -0 1
    outer loop
      vertex 126.63098907470703 22 6.5
      vertex 126.63098907470703 10 6.5
      vertex 138.63099670410156 10 6.5
    endloop
  endfacet
  facet normal 0 0 1
    outer loop
      vertex 126.63098907470703 22 6.5
      vertex 138.63099670410156 10 6.5
      vertex 138.63099670410156 22 6.5
    endloop
  endfacet
  facet normal 0 -1 0
    outer loop
      vertex 126.63098907470703 10 6.5
      vertex 126.63098907470703 10 5
      vertex 138.63099670410156 10 5
    endloop
  endfacet
  facet normal 0 -1 -0
    outer loop
      vertex 126.63098907470703 10 6.5
      vertex 138.63099670410156 10 5
      vertex 138.63099670410156 10 6.5
    endloop
  endfacet
  facet normal 1 -0 -0
    outer loop
      vertex 138.63099670410156 10 6.5
      vertex 138.63099670410156 10 5
      vertex 138.63099670410156 22 5
    endloop
  endfacet
  facet normal 1 0 0
    outer loop
      vertex 138.63099670410156 10 6.5
      vertex 138.63099670410156 22 5
      vertex 138.63099670410156 22 6.5
    endloop
  endfacet
  facet normal 0 1 -0
    outer loop
      vertex 138.63099670410156 22 6.5
      vertex 138.63099670410156 22 5
      vertex 126.63098907470703 22 5
    endloop
  endfacet
  facet normal 0 1 0
    outer loop
      vertex 138.63099670410156 22 6.5
      vertex 126.63098907470703 22 5
      vertex 126.63098907470703 22 6.5
    endloop
  endfacet
  facet normal -1 -0 0
    outer loop
      vertex 126.63098907470703 22 6.5
      vertex 126.63098907470703 22 5
      vertex 126.63098907470703 10 5
    endloop
  endfacet
  facet normal -1 0 -0
    outer loop
      vertex 126.63098907470703 22 6.5
      vertex 126.63098907470703 10 5
      vertex 126.63098907470703 10 6.5
    endloop
  endfacet
  facet normal -0 -0 1
    outer loop
      vertex 126.63098907470703 66 6.5
      vertex 126.63098907470703 54 6.5
      vertex 138.63099670410156 54 6.5
    endloop
  endfacet
  facet normal 0 0 1
    outer loop
      vertex 126.63098907470703 66 6.5
      vertex 138.63099670410156 54 6.5
      vertex 138.63099670410156 66 6.5
    endloop
  endfacet
  facet normal 0 -1 0
    outer loop
      vertex 126.63098907470703 54 6.5
      vertex 126.63098907470703 54 5
      vertex 138.63099670410156 54 5
    endloop
  endfacet
  facet normal 0 -1 -0
    outer loop
      vertex 126.63098907470703 54 6.5
      vertex 138.63099670410156 54 5
      vertex 138.63099670410156 54 6.5
    endloop
  endfacet
  facet normal 1 -0 -0
    outer loop
      vertex 138.63099670410156 54 6.5
      vertex 138.63099670410156 54 5
      vertex 138.63099670410156 66 5
    endloop
  endfacet
  facet normal 1 0 0
    outer loop
      vertex 138.63099670410156 54 6.5
      vertex 138.63099670410156 66 5
      vertex 138.63099670410156 66 6.5
    endloop
  endfacet
  facet normal 0 1 -0
    outer loop
      vertex 138.63099670410156 66 6.5
      vertex 138.63099670410156 66 5
      vertex 126.63098907470703 66 5
    endloop
  endfacet
  facet normal 0 1 0
    outer loop
      vertex 138.63099670410156 66 6.5
      vertex 126.63098907470703 66 5
      vertex 126.63098907470703 66 6.5
    endloop
  endfacet
  facet normal -1 -0 0
    outer loop
      vertex 126.63098907470703 66 6.5
      vertex 126.63098907470703 66 5
      vertex 126.63098907470703 54 5
    endloop
  endfacet
  facet normal -1 0 -0
    outer loop
      vertex 126.63098907470703 66 6.5
      vertex 126.63098907470703 54 5
      vertex 126.63098907470703 54 6.5
    endloop
  endfacet
  facet normal 0 0 1
    outer loop
      vertex 24.380990982055664 110 6.5
      vertex 24.380990982055664 98 6.5
      vertex 36.380989074707031 98 6.5
    endloop
  endfacet
  facet normal 0 0 1
    outer loop
      vertex 24.380990982055664 110 6.5
      vertex 36.380989074707031 98 6.5
      vertex 36.380989074707031 110 6.5
    endloop
  endfacet
  facet normal 0 -1 0
    outer loop
      vertex 24.380990982055664 98 6.5
      vertex 24.380990982055664 98 5
      vertex 36.380989074707031 98 5
    endloop
  endfacet
  facet normal 0 -1 0
    outer loop
      vertex 24.380990982055664 98 6.5
      vertex 36.380989074707031 98 5
      vertex 36.380989074707031 98 6.5
    endloop
  endfacet
  facet normal 1 -0 -0
    outer loop
      vertex 36.380989074707031 98 6.5
      vertex 36.380989074707031 98 5
      vertex 36.380989074707031 110 5
    endloop
  endfacet
  facet normal 1 0 0
    outer loop
      vertex 36.380989074707031 98 6.5
      vertex 36.380989074707031 110 5
      vertex 36.380989074707031 110 6.5
    endloop
  endfacet
  facet normal 0 1 -0
    outer loop
      vertex 36.380989074707031 110 6.5
      vertex 36.380989074707031 110 5
      vertex 24.380990982055664 110 5
    endloop
  endfacet
  facet normal 0 1 -0
    outer loop
      vertex 36.380989074707031 110 6.5
      vertex 24.380990982055664 110 5
      vertex 24.380990982055664 110 6.5
    endloop
  endfacet
  facet normal -1 -0 0
    outer loop
      vertex 24.380990982055664 110 6.5
      vertex 24.380990982055664 110 5
      vertex 24.380990982055664 98 5
    endloop
  endfacet
  facet normal -1 0 -0
    outer loop
      vertex 24.380990982055664 110 6.5
      vertex 24.380990982055664 98 5
      vertex 24.380990982055664 98 6.5
    endloop
  endfacet
  facet normal 0 0 1
    outer loop
      vertex 24.380990982055664 22 6.5
      vertex 24.380990982055664 10 6.5
      vertex 36.380989074707031 10 6.5
    endloop
  endfacet
  facet normal 0 0 1
    outer loop
      vertex 24.380990982055664 22 6.5
      vertex 36.380989074707031 10 6.5
      vertex 36.380989074707031 22 6.5
    endloop
  endfacet
  facet normal 0 -1 0
    outer loop
      vertex 24.380990982055664 10 6.5
      vertex 24.380990982055664 10 5
      vertex 36.380989074707031 10 5
    endloop
  endfacet
  facet normal 0 -1 0
    outer loop
      vertex 24.380990982055664 10 6.5
      vertex 36.380989074707031 10 5
      vertex 36.380989074707031 10 6.5
    endloop
  endfacet
  facet normal 1 -0 -0
    outer loop
      vertex 36.380989074707031 10 6.5
      vertex 36.380989074707031 10 5
      vertex 36.380989074707031 22 5
    endloop
  endfacet
  facet normal 1 0 0
    outer loop
      vertex 36.380989074707031 10 6.5
      vertex 36.380989074707031 22 5
      vertex 36.380989074707031 22 6.5
    endloop
  endfacet
  facet normal 0 1 -0
    outer loop
      vertex 36.380989074707031 22 6.5
      vertex 36.380989074707031 22 5
      vertex 24.380990982055664 22 5
    endloop
  endfacet
  facet normal 0 1 -0
    outer loop
      vertex 36.380989074707031 22 6.5
      vertex 24.380990982055664 22 5
      vertex 24.380990982055664 22 6.5
    endloop
  endfacet
  facet normal -1 -0 0
    outer loop
      vertex 24.380990982055664 22 6.5
      vertex 24.380990982055664 22 5
      vertex 24.380990982055664 10 5
    endloop
  endfacet
  facet normal -1 0 -0
    outer loop
      vertex 24.380990982055664 22 6.5
      vertex 24.380990982055664 10 5
      vertex 24.380990982055664 10 6.5
    endloop
  endfacet
  facet normal 0 0 1
    outer loop
      vertex 24.380990982055664 66 6.5
      vertex 24.380990982055664 54 6.5
      vertex 36.380989074707031 54 6.5
    endloop
  endfacet
  facet normal 0 0 1
    outer loop
      vertex 24.380990982055664 66 6.5
      vertex 36.380989074707031 54 6.5
      vertex 36.380989074707031 66 6.5
    endloop
  endfacet
  facet normal 0 -1 0
    outer loop
      vertex 24.380990982055664 54 6.5
      vertex 24.380990982055664 54 5
      vertex 36.380989074707031 54 5
    endloop
  endfacet
  facet normal 0 -1 0
    outer loop
      vertex 24.380990982055664 54 6.5
      vertex 36.380989074707031 54 5
      vertex 36.380989074707031 54 6.5
    endloop
  endfacet
  facet normal 1 -0 -0
    outer loop
      vertex 36.380989074707031 54 6.5
      vertex 36.380989074707031 54 5
      vertex 36.380989074707031 66 5
    endloop
  endfacet
  facet normal 1 0 0
    outer loop
      vertex 36.380989074707031 54 6.5
      vertex 36.380989074707031 66 5
      vertex 36.380989074707031 66 6.5
    endloop
  endfacet
  facet normal 0 1 -0
    outer loop
      vertex 36.380989074707031 66 6.5
      vertex 36.380989074707031 66 5
      vertex 24.380990982055664 66 5
    endloop
  endfacet
  facet normal 0 1 -0
    outer loop
      vertex 36.380989074707031 66 6.5
      vertex 24.380990982055664 66 5
      vertex 24.380990982055664 66 6.5
    endloop
  endfacet
  facet normal -1 -0 0
    outer loop
      vertex 24.380990982055664 66 6.5
      vertex 24.380990982055664 66 5
      vertex 24.380990982055664 54 5
    endloop
  endfacet
  facet normal -1 0 -0
    outer loop
      vertex 24.380990982055664 66 6.5
      vertex 24.380990982055664 54 5
      vertex 24.380990982055664 54 6.5
    endloop
  endfacet
  facet normal -0 -0 1
    outer loop
      vertex 75.505989074707031 66 6.5
      vertex 75.505989074707031 54 6.5
      vertex 87.505989074707031 54 6.5
    endloop
  endfacet
  facet normal 0 0 1
    outer loop
      vertex 75.505989074707031 66 6.5
      vertex 87.505989074707031 54 6.5
      vertex 87.505989074707031 66 6.5
    endloop
  endfacet
  facet normal 0 -1 0
    outer loop
      vertex 75.505989074707031 54 6.5
      vertex 75.505989074707031 54 5
      vertex 87.505989074707031 54 5
    endloop
  endfacet
  facet normal 0 -1 -0
    outer loop
      vertex 75.505989074707031 54 6.5
      vertex 87.505989074707031 54 5
      vertex 87.505989074707031 54 6.5
    endloop
  endfacet
  facet normal 1 -0 -0
    outer loop
      vertex 87.505989074707031 54 6.5
      vertex 87.505989074707031 54 5
      vertex 87.505989074707031 66 5
    endloop
  endfacet
  facet normal 1 0 0
    outer loop
      vertex 87.505989074707031 54 6.5
      vertex 87.505989074707031 66 5
      vertex 87.505989074707031 66 6.5
    endloop
  endfacet
  facet normal 0 1 -0
    outer loop
      vertex 87.505989074707031 66 6.5
      vertex 87.505989074707031 66 5
      vertex 75.505989074707031 66 5
    endloop
  endfacet
  facet normal 0 1 0
    outer loop
      vertex 87.505989074707031 66 6.5
      vertex 75.505989074707031 66 5
      vertex 75.505989074707031 66 6.5
    endloop
  endfacet
  facet normal -1 -0 0
    outer loop
      vertex 75.505989074707031 66 6.5
      vertex 75.505989074707031 66 5
      vertex 75.505989074707031 54 5
    endloop
  endfacet
  facet normal -1 0 -0
    outer loop
      vertex 75.505989074707031 66 6.5
      vertex 75.505989074707031 54 5
      vertex 75.505989074707031 54 6.5
    endloop
  endfacet
  facet normal -0 -0 1
    outer loop
      vertex 75.505989074707031 22 6.5
      vertex 75.505989074707031 10 6.5
      vertex 87.505989074707031 10 6.5
    endloop
  endfacet
  facet normal 0 0 1
    outer loop
      vertex 75.505989074707031 22 6.5
      vertex 87.505989074707031 10 6.5
      vertex 87.505989074707031 22 6.5
    endloop
  endfacet
  facet normal 0 -1 0
    outer loop
      vertex 75.505989074707031 10 6.5
      vertex 75.505989074707031 10 5
      vertex 87.505989074707031 10 5
    endloop
  endfacet
  facet normal 0 -1 -0
    outer loop
      vertex 75.505989074707031 10 6.5
      vertex 87.505989074707031 10 5
      vertex 87.505989074707031 10 6.5
    endloop
  endfacet
  facet normal 1 -0 -0
    outer loop
      vertex 87.505989074707031 10 6.5
      vertex 87.505989074707031 10 5
      vertex 87.505989074707031 22 5
    endloop
  endfacet
  facet normal 1 0 0
    outer loop
      vertex 87.505989074707031 10 6.5
      vertex 87.505989074707031 22 5
      vertex 87.505989074707031 22 6.5
    endloop
  endfacet
  facet normal 0 1 -0
    outer loop
      vertex 87.505989074707031 22 6.5
      vertex 87.505989074707031 22 5
      vertex 75.505989074707031 22 5
    endloop
  endfacet
  facet normal 0 1 0
    outer loop
      vertex 87.505989074707031 22 6.5
      vertex 75.505989074707031 22 5
      vertex 75.505989074707031 22 6.5
    endloop
  endfacet
  facet normal -1 -0 0
    outer loop
      vertex 75.505989074707031 22 6.5
      vertex 75.505989074707031 22 5
      vertex 75.505989074707031 10 5
    endloop
  endfacet
  facet normal -1 0 -0
    outer loop
      vertex 75.505989074707031 22 6.5
      vertex 75.505989074707031 10 5
      vertex 75.505989074707031 10 6.5
    endloop
  endfacet
  facet normal -0 -0 1
    outer loop
      vertex 75.505989074707031 110 6.5
      vertex 75.505989074707031 98 6.5
      vertex 87.505989074707031 98 6.5
    endloop
  endfacet
  facet normal 0 0 1
    outer loop
      vertex 75.505989074707031 110 6.5
      vertex 87.505989074707031 98 6.5
      vertex 87.505989074707031 110 6.5
    endloop
  endfacet
  facet normal 0 -1 0
    outer loop
      vertex 75.505989074707031 98 6.5
      vertex 75.505989074707031 98 5
      vertex 87.505989074707031 98 5
    endloop
  endfacet
  facet normal 0 -1 -0
    outer loop
      vertex 75.505989074707031 98 6.5
      vertex 87.505989074707031 98 5
      vertex 87.505989074707031 98 6.5
    endloop
  endfacet
  facet normal 1 -0 -0
    outer loop
      vertex 87.505989074707031 98 6.5
      vertex 87.505989074707031 98 5
      vertex 87.505989074707031 110 5
    endloop
  endfacet
  facet normal 1 0 0
    outer loop
      vertex 87.505989074707031 98 6.5
      vertex 87.505989074707031 110 5
      vertex 87.505989074707031 110 6.5
    endloop
  endfacet
  facet normal 0 1 -0
    outer loop
      vertex 87.505989074707031 110 6.5
      vertex 87.505989074707031 110 5
      vertex 75.505989074707031 110 5
    endloop
  endfacet
  facet normal 0 1 0
    outer loop
      vertex 87.505989074707031 110 6.5
      vertex 75.505989074707031 110 5
      vertex 75.505989074707031 110 6.5
    endloop
  endfacet
  facet normal -1 -0 0
    outer loop
      vertex 75.505989074707031 110 6.5
      vertex 75.505989074707031 110 5
      vertex 75.505989074707031 98 5
    endloop
  endfacet
  facet normal -1 0 -0
    outer loop
      vertex 75.505989074707031 110 6.5
      vertex 75.505989074707031 98 5
      vertex 75.505989074707031 98 6.5
    endloop
  endfacet
  facet normal -0 -0 1
    outer loop
      vertex 177.75599670410156 66 6.5
      vertex 177.75599670410156 54 6.5
      vertex 189.75599670410156 54 6.5
    endloop
  endfacet
  facet normal 0 0 1
    outer loop
      vertex 177.75599670410156 66 6.5
      vertex 189.75599670410156 54 6.5
      vertex 189.75599670410156 66 6.5
    endloop
  endfacet
  facet normal 0 -1 0
    outer loop
      vertex 177.75599670410156 54 6.5
      vertex 177.75599670410156 54 5
      vertex 189.75599670410156 54 5
    endloop
  endfacet
  facet normal 0 -1 -0
    outer loop
      vertex 177.75599670410156 54 6.5
      vertex 189.75599670410156 54 5
      vertex 189.75599670410156 54 6.5
    endloop
  endfacet
  facet normal 1 -0 -0
    outer loop
      vertex 189.75599670410156 54 6.5
      vertex 189.75599670410156 54 5
      vertex 189.75599670410156 66 5
    endloop
  endfacet
  facet normal 1 0 0
    outer loop
      vertex 189.75599670410156 54 6.5
      vertex 189.75599670410156 66 5
      vertex 189.75599670410156 66 6.5
    endloop
  endfacet
  facet normal 0 1 -0
    outer loop
      vertex 189.75599670410156 66 6.5
      vertex 189.75599670410156 66 5
      vertex 177.75599670410156 66 5
    endloop
  endfacet
  facet normal 0 1 0
    outer loop
      vertex 189.75599670410156 66 6.5
      vertex 177.75599670410156 66 5
      vertex 177.75599670410156 66 6.5
    endloop
  endfacet
  facet normal -1 -0 0
    outer loop
      vertex 177.75599670410156 66 6.5
      vertex 177.75599670410156 66 5
      vertex 177.75599670410156 54 5
    endloop
  endfacet
  facet normal -1 0 -0
    outer loop
      vertex 177.75599670410156 66 6.5
      vertex 177.75599670410156 54 5
      vertex 177.75599670410156 54 6.5
    endloop
  endfacet
  facet normal -0 -0 1
    outer loop
      vertex 177.75599670410156 22 6.5
      vertex 177.75599670410156 10 6.5
      vertex 189.75599670410156 10 6.5
    endloop
  endfacet
  facet normal 0 0 1
    outer loop
      vertex 177.75599670410156 22 6.5
      vertex 189.75599670410156 10 6.5
      vertex 189.75599670410156 22 6.5
    endloop
  endfacet
  facet normal 0 -1 0
    outer loop
      vertex 177.75599670410156 10 6.5
      vertex 177.75599670410156 10 5
      vertex 189.75599670410156 10 5
    endloop
  endfacet
  facet normal 0 -1 -0
    outer loop
      vertex 177.75599670410156 10 6.5
      vertex 189.75599670410156 10 5
      vertex 189.75599670410156 10 6.5
    endloop
  endfacet
  facet normal 1 -0 -0
    outer loop
      vertex 189.75599670410156 10 6.5
      vertex 189.75599670410156 10 5
      vertex 189.75599670410156 22 5
    endloop
  endfacet
  facet normal 1 0 0
    outer loop
      vertex 189.75599670410156 10 6.5
      vertex 189.75599670410156 22 5
      vertex 189.75599670410156 22 6.5
    endloop
  endfacet
  facet normal 0 1 -0
    outer loop
      vertex 189.75599670410156 22 6.5
      vertex 189.75599670410156 22 5
      vertex 177.75599670410156 22 5
    endloop
  endfacet
  facet normal 0 1 0
    outer loop
      vertex 189.75599670410156 22 6.5
      vertex 177.75599670410156 22 5
      vertex 177.75599670410156 22 6.5
    endloop
  endfacet
  facet normal -1 -0 0
    outer loop
      vertex 177.75599670410156 22 6.5
      vertex 177.75599670410156 22 5
      vertex 177.75599670410156 10 5
    endloop
  endfacet
  facet normal -1 0 -0
    outer loop
      vertex 177.75599670410156 22 6.5
      vertex 177.75599670410156 10 5
      vertex 177.75599670410156 10 6.5
    endloop
  endfacet
  facet normal -0 -0 1
    outer loop
      vertex 177.75599670410156 110 6.5
      vertex 177.75599670410156 98 6.5
      vertex 189.75599670410156 98 6.5
    endloop
  endfacet
  facet normal 0 0 1
    outer loop
      vertex 177.75599670410156 110 6.5
      vertex 189.75599670410156 98 6.5
      vertex 189.75599670410156 110 6.5
    endloop
  endfacet
  facet normal 0 -1 0
    outer loop
      vertex 177.75599670410156 98 6.5
      vertex 177.75599670410156 98 5
      vertex 189.75599670410156 98 5
    endloop
  endfacet
  facet normal 0 -1 -0
    outer loop
      vertex 177.75599670410156 98 6.5
      vertex 189.75599670410156 98 5
      vertex 189.75599670410156 98 6.5
    endloop
  endfacet
  facet normal 1 -0 -0
    outer loop
      vertex 189.75599670410156 98 6.5
      vertex 189.75599670410156 98 5
      vertex 189.75599670410156 110 5
    endloop
  endfacet
  facet normal 1 0 0
    outer loop
      vertex 189.75599670410156 98 6.5
      vertex 189.75599670410156 110 5
      vertex 189.75599670410156 110 6.5
    endloop
  endfacet
  facet normal 0 1 -0
    outer loop
      vertex 189.75599670410156 110 6.5
      vertex 189.75599670410156 110 5
      vertex 177.75599670410156 110 5
    endloop
  endfacet
  facet normal 0 1 0
    outer loop
      vertex 189.75599670410156 110 6.5
      vertex 177.75599670410156 110 5
      vertex 177.75599670410156 110 6.5
    endloop
  endfacet
  facet normal -1 -0 0
    outer loop
      vertex 177.75599670410156 110 6.5
      vertex 177.75599670410156 110 5
      vertex 177.75599670410156 98 5
    endloop
  endfacet
  facet normal -1 0 -0
    outer loop
      vertex 177.75599670410156 110 6.5
      vertex 177.75599670410156 98 5
      vertex 177.75599670410156 98 6.5
    endloop
  endfacet
endsolid OBJECT
