solid OBJECT
  facet normal -1 0 -0
    outer loop
      vertex -115.00000208616257 -115.51030164957047 -4.0000001899898052
      vertex -115.00000208616257 -115.51030164957047 4.0000001899898052
      vertex -115.00000208616257 114.48971742391586 4.0000001899898052
    endloop
  endfacet
  facet normal -1 0 0
    outer loop
      vertex -115.00000208616257 -115.51030164957047 -4.0000001899898052
      vertex -115.00000208616257 114.48971742391586 4.0000001899898052
      vertex -115.00000208616257 114.48971742391586 -4.0000001899898052
    endloop
  endfacet
  facet normal -0 1 0
    outer loop
      vertex -115.00000208616257 114.48971742391586 -4.0000001899898052
      vertex -115.00000208616257 114.48971742391586 4.0000001899898052
      vertex 115.00000208616257 114.48971742391586 4.0000001899898052
    endloop
  endfacet
  facet normal 0 1 -0
    outer loop
      vertex -115.00000208616257 114.48971742391586 -4.0000001899898052
      vertex 115.00000208616257 114.48971742391586 4.0000001899898052
      vertex 115.00000208616257 114.48971742391586 -4.0000001899898052
    endloop
  endfacet
  facet normal 1 0 0
    outer loop
      vertex 115.00000208616257 114.48971742391586 -4.0000001899898052
      vertex 115.00000208616257 114.48971742391586 4.0000001899898052
      vertex 115.00000208616257 -115.51030164957047 4.0000001899898052
    endloop
  endfacet
  facet normal 1 0 -0
    outer loop
      vertex 115.00000208616257 114.48971742391586 -4.0000001899898052
      vertex 115.00000208616257 -115.51030164957047 4.0000001899898052
      vertex 115.00000208616257 -115.51030164957047 -4.0000001899898052
    endloop
  endfacet
  facet normal -0 -1 -0
    outer loop
      vertex 115.00000208616257 -115.51030164957047 -4.0000001899898052
      vertex 115.00000208616257 -115.51030164957047 4.0000001899898052
      vertex -115.00000208616257 -115.51030164957047 4.0000001899898052
    endloop
  endfacet
  facet normal 0 -1 0
    outer loop
      vertex 115.00000208616257 -115.51030164957047 -4.0000001899898052
      vertex -115.00000208616257 -115.51030164957047 4.0000001899898052
      vertex -115.00000208616257 -115.51030164957047 -4.0000001899898052
    endloop
  endfacet
  facet normal -0 -0 -1
    outer loop
      vertex -115.00000208616257 114.48971742391586 -4.0000001899898052
      vertex 115.00000208616257 114.48971742391586 -4.0000001899898052
      vertex 115.00000208616257 -115.51030164957047 -4.0000001899898052
    endloop
  endfacet
  facet normal 0 0 -1
    outer loop
      vertex -115.00000208616257 114.48971742391586 -4.0000001899898052
      vertex 115.00000208616257 -115.51030164957047 -4.0000001899898052
      vertex -115.00000208616257 -115.51030164957047 -4.0000001899898052
    endloop
  endfacet
  facet normal -0 -0 1
    outer loop
      vertex -110.00002175569534 -110.51036602258682 4.0000001899898052
      vertex -115.00000208616257 -115.51030164957047 4.0000001899898052
      vertex 115.00000208616257 -115.51030164957047 4.0000001899898052
    endloop
  endfacet
  facet normal -0 -0 1
    outer loop
      vertex -110.00002175569534 -110.51036602258682 4.0000001899898052
      vertex 115.00000208616257 -115.51030164957047 4.0000001899898052
      vertex 110.00002175569534 -110.51036602258682 4.0000001899898052
    endloop
  endfacet
  facet normal 0 0 1
    outer loop
      vertex 110.00002175569534 109.48966258764267 4.0000001899898052
      vertex 110.00002175569534 -110.51036602258682 4.0000001899898052
      vertex 115.00000208616257 -115.51030164957047 4.0000001899898052
    endloop
  endfacet
  facet normal 0 0 1
    outer loop
      vertex -115.00000208616257 114.48971742391586 4.0000001899898052
      vertex -115.00000208616257 -115.51030164957047 4.0000001899898052
      vertex -110.00002175569534 -110.51036602258682 4.0000001899898052
    endloop
  endfacet
  facet normal 0 0 1
    outer loop
      vertex -115.00000208616257 114.48971742391586 4.0000001899898052
      vertex -110.00002175569534 -110.51036602258682 4.0000001899898052
      vertex -110.00002175569534 109.48966258764267 4.0000001899898052
    endloop
  endfacet
  facet normal 0 -0 1
    outer loop
      vertex 110.00002175569534 109.48966258764267 4.0000001899898052
      vertex 115.00000208616257 -115.51030164957047 4.0000001899898052
      vertex 115.00000208616257 114.48971742391586 4.0000001899898052
    endloop
  endfacet
  facet normal 0 0 1
    outer loop
      vertex -115.00000208616257 114.48971742391586 4.0000001899898052
      vertex -110.00002175569534 109.48966258764267 4.0000001899898052
      vertex 110.00002175569534 109.48966258764267 4.0000001899898052
    endloop
  endfacet
  facet normal 0 -0 1
    outer loop
      vertex 115.00000208616257 114.48971742391586 4.0000001899898052
      vertex -115.00000208616257 114.48971742391586 4.0000001899898052
      vertex 110.00002175569534 109.48966258764267 4.0000001899898052
    endloop
  endfacet
  facet normal 1 -0 -0
    outer loop
      vertex -110.00002175569534 -110.51036602258682 4.0000001899898052
      vertex -110.00002175569534 -110.51036602258682 1.0756097035482526
      vertex -110.00002175569534 109.48966258764267 1.0756097035482526
    endloop
  endfacet
  facet normal 1 0 0
    outer loop
      vertex -110.00002175569534 -110.51036602258682 4.0000001899898052
      vertex -110.00002175569534 109.48966258764267 1.0756097035482526
      vertex -110.00002175569534 109.48966258764267 4.0000001899898052
    endloop
  endfacet
  facet normal 0 -1 0
    outer loop
      vertex -110.00002175569534 109.48966258764267 4.0000001899898052
      vertex -110.00002175569534 109.48966258764267 1.0756097035482526
      vertex 110.00002175569534 109.48966258764267 1.0756097035482526
    endloop
  endfacet
  facet normal 0 -1 -0
    outer loop
      vertex -110.00002175569534 109.48966258764267 4.0000001899898052
      vertex 110.00002175569534 109.48966258764267 1.0756097035482526
      vertex 110.00002175569534 109.48966258764267 4.0000001899898052
    endloop
  endfacet
  facet normal -1 -0 -0
    outer loop
      vertex 110.00002175569534 109.48966258764267 1.0756097035482526
      vertex 110.00002175569534 -110.51036602258682 1.0756097035482526
      vertex 110.00002175569534 -110.51036602258682 4.0000001899898052
    endloop
  endfacet
  facet normal -1 -0 -0
    outer loop
      vertex 110.00002175569534 109.48966258764267 1.0756097035482526
      vertex 110.00002175569534 -110.51036602258682 4.0000001899898052
      vertex 110.00002175569534 109.48966258764267 4.0000001899898052
    endloop
  endfacet
  facet normal 0 1 0
    outer loop
      vertex 110.00002175569534 -110.51036602258682 1.0756097035482526
      vertex -110.00002175569534 -110.51036602258682 1.0756097035482526
      vertex -110.00002175569534 -110.51036602258682 4.0000001899898052
    endloop
  endfacet
  facet normal 0 1 0
    outer loop
      vertex 110.00002175569534 -110.51036602258682 1.0756097035482526
      vertex -110.00002175569534 -110.51036602258682 4.0000001899898052
      vertex 110.00002175569534 -110.51036602258682 4.0000001899898052
    endloop
  endfacet
  facet normal -0 -0 1
    outer loop
      vertex -110.00002175569534 109.48966258764267 1.0756097035482526
      vertex -110.00002175569534 -110.51036602258682 1.0756097035482526
      vertex 110.00002175569534 -110.51036602258682 1.0756097035482526
    endloop
  endfacet
  facet normal 0 0 1
    outer loop
      vertex -110.00002175569534 109.48966258764267 1.0756097035482526
      vertex 110.00002175569534 -110.51036602258682 1.0756097035482526
      vertex 110.00002175569534 109.48966258764267 1.0756097035482526
    endloop
  endfacet
endsolid OBJECT
